<svg xmlns="http://www.w3.org/2000/svg" viewBox="0 0 122.32 122.32"><defs><style>.cls-1{fill:#fbe4e6;}.cls-2,.cls-3{fill:#ea545e;}.cls-2,.cls-6{stroke:#241916;}.cls-2{stroke-linejoin:round;stroke-width:2.79px;}.cls-3{stroke:#261815;stroke-width:2.76px;}.cls-3,.cls-5,.cls-6{stroke-miterlimit:10;}.cls-4{fill:#241916;}.cls-5,.cls-6{fill:none;stroke-width:2.79px;}.cls-5{stroke:#ffdb3f;}.cls-6{stroke-linecap:round;}</style></defs><g id="Layer_2" data-name="Layer 2"><g id="디자인"><circle class="cls-1" cx="61.16" cy="61.16" r="61.16"/><path class="cls-2" d="M71.61,15.28c-1.38-1-3.39-.31-5.06,1.6-.46-1.84-1.42-3.14-2.7-3.32s-2.75.95-3.72,2.83c-1-2.56-2.85-4-4.54-3.41-2.12.76-3.24,4.46-2.51,8.24s3,6.24,5.14,5.47a2.41,2.41,0,0,0,.33-.15,1.42,1.42,0,0,1,1.78.37,2.5,2.5,0,0,0,1.52.87,2.39,2.39,0,0,0,1.54-.33,1.44,1.44,0,0,1,1.67.11l.08.06c1.81,1.36,4.71-.31,6.5-3.72S73.41,16.63,71.61,15.28Z"/><path class="cls-3" d="M104.93,68c0,24.63-17.62,33.64-42.24,33.64S18.88,92.62,18.88,68,30.61,23.4,61.12,23.4C93.2,23.4,104.93,43.37,104.93,68Z"/><ellipse class="cls-4" cx="53.19" cy="64.31" rx="2.32" ry="3.55"/><ellipse class="cls-4" cx="70.33" cy="64.31" rx="2.32" ry="3.55"/><circle class="cls-5" cx="61.76" cy="77.05" r="2.35"/><line class="cls-6" x1="62.27" y1="24.78" x2="62.27" y2="32.99"/><path class="cls-6" d="M60.84,24.77s-8.23,1.14-8.23,9.05"/><path class="cls-6" d="M63.76,24.87A11.35,11.35,0,0,1,72.06,33"/></g></g></svg>