<svg xmlns="http://www.w3.org/2000/svg" xmlns:xlink="http://www.w3.org/1999/xlink" viewBox="0 0 121.81 154.47"><defs><style>.cls-1,.cls-7,.cls-8{fill:none;}.cls-2{fill:#26559a;}.cls-3{clip-path:url(#clip-path);}.cls-4,.cls-5{fill:#ea545e;}.cls-10,.cls-4,.cls-5,.cls-7,.cls-9{stroke:#261815;stroke-linecap:round;stroke-linejoin:round;}.cls-4{stroke-width:2.08px;}.cls-5,.cls-7{stroke-width:2.08px;}.cls-6{fill:#261815;}.cls-8{stroke:#fff340;stroke-miterlimit:10;stroke-width:1.75px;}.cls-9{fill:#70a54f;}.cls-10,.cls-9{stroke-width:1.56px;}.cls-10{fill:#ddb35d;}</style><clipPath id="clip-path"><circle class="cls-1" cx="60.9" cy="61.9" r="60.9"/></clipPath></defs><g id="Layer_2" data-name="Layer 2"><g id="디자인"><circle class="cls-2" cx="60.9" cy="60.9" r="60.9"/><g class="cls-3"><path class="cls-4" d="M57.08,131.77c-5.15,0-2.67,16.41-3.28,19.29-.65,3.06,4.78,3,5.1-.72S60,131.78,57.08,131.77Z"/><path class="cls-4" d="M62.52,131.93c-5.15.06-2.41,16.46-3,19.34-.6,3.08,4.83,2.93,5.09-.8S65.47,131.9,62.52,131.93Z"/><path class="cls-4" d="M68,27.45c-1-.77-2.52-.23-3.76,1.19-.34-1.37-1.06-2.33-2-2.47s-2.05.71-2.76,2.11c-.77-1.91-2.12-3-3.38-2.54-1.57.57-2.41,3.31-1.87,6.13s2.26,4.64,3.83,4.07l.24-.11a1,1,0,0,1,1.32.27,1.86,1.86,0,0,0,1.13.65,1.83,1.83,0,0,0,1.15-.25,1.07,1.07,0,0,1,1.24.08l.06.05c1.34,1,3.51-.23,4.83-2.77S69.31,28.46,68,27.45Z"/><path class="cls-5" d="M92.74,111.23c-4.67-29.56,2.64-37.9-2.51-56.77-7.24-26.58-48.14-26.9-57.89-2-7.12,18.15-8.36,54.07,0,76C43.77,158.47,98.25,146.13,92.74,111.23Z"/><path class="cls-6" d="M56.26,63.92c0,1.45-.77,2.64-1.73,2.64s-1.72-1.19-1.72-2.64.77-2.64,1.72-2.64S56.26,62.46,56.26,63.92Z"/><path class="cls-6" d="M69,63.92c0,1.45-.77,2.64-1.72,2.64s-1.72-1.19-1.72-2.64.77-2.64,1.72-2.64S69,62.46,69,63.92Z"/><line class="cls-7" x1="61.03" y1="34.52" x2="61.03" y2="40.62"/><path class="cls-7" d="M60,34.51s-6.13.84-6.13,6.73"/><path class="cls-7" d="M62.14,34.59a8.43,8.43,0,0,1,6.17,6"/><path class="cls-8" d="M62.67,72.23a1.77,1.77,0,1,1-1.76-1.76A1.76,1.76,0,0,1,62.67,72.23Z"/><path class="cls-9" d="M67.84,84.26a6.28,6.28,0,0,0-3.84,0A10.85,10.85,0,0,1,65.28,82c.59-.81,0-2.35-1.14-2.09a8.58,8.58,0,0,0-2.59,1,5.64,5.64,0,0,0-1,.7,3.84,3.84,0,0,0-.3.28l-.36-.36c-.34-.35-.67-.71-1-1a4.76,4.76,0,0,0-2.63-1.25c-1-.1-2.06,1.14-1.25,2a5.52,5.52,0,0,1,1.25,2.12,6.85,6.85,0,0,0-5.53.34c-1.06.61-.4,2.08.56,2.32a7.27,7.27,0,0,1,5.13,5,1.3,1.3,0,0,0,1.65.73l3.6.4c1.23.13,2.58.39,3.27-.94.21-.4.29-.86.46-1.28a7.69,7.69,0,0,1,2.68-3.52C68.76,86,68.81,84.56,67.84,84.26Z"/><path class="cls-10" d="M51.21,93.92l1.54,8.76c.21,1.18,1,2,1.85,2H65.77c.88,0,1.65-.82,1.86-2l1.54-8.76c.28-1.64-.63-3.22-1.86-3.22H53.07C51.83,90.7,50.92,92.28,51.21,93.92Z"/><rect class="cls-10" x="49.88" y="89.2" width="20.61" height="5.61" rx="2.51"/><path class="cls-5" d="M82.87,94.09C82,94.79,69,105.2,66.7,101.37,65,98.48,76.52,87.45,77.42,86.75"/><path class="cls-5" d="M38.12,94.23c.91.7,14.49,9.53,16,7.46l.14-.19c1.65-2.21-9.82-13.91-10.73-14.61"/></g></g></g></svg>