<svg xmlns="http://www.w3.org/2000/svg" xmlns:xlink="http://www.w3.org/1999/xlink" viewBox="0 0 122.32 163.1"><defs><style>.cls-1,.cls-7,.cls-8{fill:none;}.cls-2{fill:#aad7b7;}.cls-3{clip-path:url(#clip-path);}.cls-4,.cls-5,.cls-9{fill:#ea545e;}.cls-4,.cls-5,.cls-8,.cls-9{stroke:#261815;}.cls-4,.cls-8,.cls-9{stroke-linecap:round;}.cls-4,.cls-9{stroke-linejoin:round;}.cls-4{stroke-width:2.36px;}.cls-5,.cls-7,.cls-8{stroke-miterlimit:10;}.cls-5,.cls-8{stroke-width:2.36px;}.cls-6{fill:#261815;}.cls-7{stroke:#fff340;stroke-width:2.12px;}.cls-9{stroke-width:2.22px;}.cls-10{fill:#f19a9b;}.cls-11{fill:#251714;}</style><clipPath id="clip-path"><circle class="cls-1" cx="61.16" cy="61.16" r="61.16"/></clipPath></defs><g id="Layer_2" data-name="Layer 2"><g id="디자인"><circle class="cls-2" cx="61.16" cy="61.16" r="61.16"/><g class="cls-3"><path class="cls-4" d="M51.11,137.74c-5.79-.74-5.28,18.1-6.37,21.26-1.16,3.35,5,4,5.84-.1S54.43,138.16,51.11,137.74Z"/><path class="cls-4" d="M64.25,137.94c-5.63,1.54,2.07,18.74,2.28,22.07.22,3.55,6.13,1.83,5.36-2.34S67.47,137.05,64.25,137.94Z"/><path class="cls-4" d="M77.88,21.83c-1-1-2.81-.61-4.4.82-.2-1.6-.87-2.78-1.92-3.06s-2.4.51-3.41,2c-.59-2.25-2-3.67-3.45-3.33-1.84.43-3.16,3.4-3,6.65s1.89,5.53,3.74,5.1l.29-.08a1.19,1.19,0,0,1,1.45.48,2.09,2.09,0,0,0,1.18.89,2.05,2.05,0,0,0,1.33-.11,1.18,1.18,0,0,1,1.38.26l.07.06c1.37,1.32,4,.23,5.82-2.44S79.24,23.14,77.88,21.83Z"/><path class="cls-5" d="M94.11,119.57C93,85.66,102.35,77.28,99.18,55.32,94.72,24.4,48.73,18.35,34.29,45,23.76,64.43,17.36,104.7,23.72,130.56,32.42,166,95.46,159.63,94.11,119.57Z"/><path class="cls-6" d="M59.33,61.21c-.2,1.64-1.23,2.86-2.3,2.73s-1.78-1.57-1.58-3.21,1.24-2.87,2.31-2.73S59.53,59.57,59.33,61.21Z"/><path class="cls-6" d="M73.68,63c-.2,1.64-1.24,2.87-2.31,2.73S69.6,64.14,69.8,62.5s1.24-2.86,2.31-2.73S73.88,61.34,73.68,63Z"/><path class="cls-7" d="M67.36,70.68a3.88,3.88,0,0,1-7.66-.94c.16-1.25,2-2,4.11-1.79S67.52,69.43,67.36,70.68Z"/><line class="cls-8" x1="69.08" y1="28.82" x2="68.23" y2="35.69"/><path class="cls-8" d="M67.88,28.66s-7,.1-7.82,6.72"/><path class="cls-8" d="M70.32,29.05a9.56,9.56,0,0,1,6.11,7.65"/><path class="cls-9" d="M38.34,94.46c.65-1.25,8.32-19.68,5.45-21.17l-.25-.13c-3.07-1.59-14.71,14.8-15.35,16"/><path class="cls-10" d="M41.59,65.58h0a4.7,4.7,0,0,0-2.05-.88A4.35,4.35,0,0,0,35,68.07a6.86,6.86,0,0,0,1.56,5.76,17.58,17.58,0,0,0,4.82,3.81,7.84,7.84,0,0,0,3.24,1.29,6.18,6.18,0,0,0,3.48-1,12.34,12.34,0,0,0,6.15-10.16,5.76,5.76,0,0,0-.41-2.6c-1.07-2.32-4.44-2.91-6.58-1.51s-2.37,3.5-3,5.69A8.34,8.34,0,0,0,41.59,65.58Z"/><path class="cls-11" d="M41.59,64.42c.74,0-.05-.24-.24-.34a7.25,7.25,0,0,0-.87-.36A5.23,5.23,0,0,0,39,63.5a5,5,0,0,0-3,1.13,6,6,0,0,0-2.21,5.57A9.52,9.52,0,0,0,37.13,76a18.48,18.48,0,0,0,6.14,3.78c4.4,1.43,8.92-2.8,10.74-6.43S56.7,64,52.2,62.23a6.1,6.1,0,0,0-5.85.74c-2,1.5-2.52,3.83-3.13,6.12h2.24a10.26,10.26,0,0,0-3.28-4.51c-1.19-.9-2.35,1.12-1.17,2a7.29,7.29,0,0,1,2.21,3.12,1.17,1.17,0,0,0,2.24,0c.38-1.42.61-3.06,1.58-4.24a3.78,3.78,0,0,1,3.41-1.32c3.58.46,2.88,4.86,1.9,7.29a11.46,11.46,0,0,1-2.72,4,7.62,7.62,0,0,1-4.47,2.33c-1.72.07-3.46-1.27-4.82-2.19a10.36,10.36,0,0,1-3.66-3.78,4.36,4.36,0,0,1,.35-5,2.88,2.88,0,0,1,2-1,2.83,2.83,0,0,1,1.45.41c.38.2.68.51,1.13.51A1.17,1.17,0,0,0,41.59,64.42Z"/><path class="cls-4" d="M54.88,96.27c-.68-1.38-10.81-21.18-5.77-23,3.8-1.4,14.93,16.83,15.6,18.21"/></g></g></g></svg>