<svg xmlns="http://www.w3.org/2000/svg" viewBox="0 0 121.81 121.81"><defs><style>.cls-1{fill:#f6c753;}.cls-2,.cls-3{fill:#ea545e;}.cls-2,.cls-3,.cls-6,.cls-7,.cls-8{stroke:#261815;}.cls-2,.cls-6,.cls-7,.cls-8{stroke-linecap:round;}.cls-2,.cls-7,.cls-8{stroke-linejoin:round;}.cls-2{stroke-width:1.4px;}.cls-3,.cls-5,.cls-6{stroke-miterlimit:10;}.cls-3,.cls-6{stroke-width:1.4px;}.cls-4{fill:#261815;}.cls-5,.cls-6{fill:none;}.cls-5{stroke:#fff340;stroke-width:1.26px;}.cls-7{fill:#cecfcf;}.cls-7,.cls-8{stroke-width:0.62px;}.cls-8{fill:#f5f4ac;}</style></defs><g id="Layer_2" data-name="Layer 2"><g id="디자인"><circle class="cls-1" cx="60.9" cy="60.9" r="60.9"/><path class="cls-2" d="M55.15,90.1c-3.44-.44-3.14,10.76-3.79,12.63s3,2.41,3.47-.06S57.12,90.35,55.15,90.1Z"/><path class="cls-2" d="M63,90.22c-3.34.92,1.23,11.14,1.36,13.12S68,104.42,67.49,102,64.87,89.69,63,90.22Z"/><path class="cls-2" d="M71.05,21.22c-.62-.59-1.66-.36-2.61.49-.12-.95-.52-1.65-1.14-1.82s-1.43.31-2,1.18c-.35-1.34-1.16-2.18-2-2-1.09.26-1.88,2-1.75,3.95s1.12,3.29,2.22,3a.85.85,0,0,0,.17-.06.74.74,0,0,1,.87.29,1.16,1.16,0,0,0,1.49.46.72.72,0,0,1,.82.16l0,0c.81.78,2.36.13,3.46-1.46S71.86,22,71.05,21.22Z"/><path class="cls-3" d="M80.7,79.31c-.68-20.16,4.89-25.13,3-38.18-2.65-18.38-30-22-38.56-6.14-6.26,11.55-10.06,35.48-6.28,50.85C44,106.86,81.5,103.11,80.7,79.31Z"/><path class="cls-4" d="M60,44.63c-.12,1-.73,1.7-1.37,1.62s-1-.93-.93-1.91.73-1.7,1.37-1.62S60.15,43.65,60,44.63Z"/><path class="cls-4" d="M68.56,45.68c-.12,1-.74,1.7-1.37,1.62s-1.06-.93-.94-1.91.74-1.7,1.37-1.62S68.68,44.7,68.56,45.68Z"/><path class="cls-5" d="M64.8,50.25a2.3,2.3,0,0,1-4.55-.56c.09-.74,1.19-1.21,2.44-1.06S64.9,49.51,64.8,50.25Z"/><path class="cls-2" d="M76.25,63.9c.85-.32,13.16-5.14,14-2,.6,2.33-10.83,7.83-11.69,8.15"/><line class="cls-6" x1="65.82" y1="25.38" x2="65.32" y2="29.46"/><path class="cls-6" d="M65.11,25.28s-4.16.06-4.65,4"/><path class="cls-6" d="M66.56,25.51a5.7,5.7,0,0,1,3.63,4.55"/><path class="cls-2" d="M44.6,61.05c-.65-.68-10.58-9.5-12-8.17l-.12.12C31,54.43,39.07,65.11,39.73,65.78"/><rect class="cls-7" x="33.79" y="49.54" width="1.21" height="3.16" transform="translate(25.41 -9.84) rotate(25.55)"/><rect class="cls-8" x="31.37" y="51.91" width="2.75" height="5.3" rx="0.82" transform="translate(26.73 -8.79) rotate(25.55)"/><path class="cls-7" d="M38.48,46.46a.47.47,0,0,0-.61.22l-.82,1.7s-.41.36-.49.33-.15-.64-.15-.64l.81-1.7A.45.45,0,1,0,36.4,46l-.86,1.79S35.09,48,35,48s-.19-.54-.19-.54l.85-1.79a.46.46,0,1,0-.83-.4l-1,2.11v0a2.13,2.13,0,1,0,3.85,1.84h0l1-2.11A.47.47,0,0,0,38.48,46.46Z"/><rect class="cls-7" x="89.04" y="57.99" width="1.2" height="3.16" transform="translate(22.5 -24.55) rotate(17.8)"/><rect class="cls-8" x="87.1" y="60.55" width="2.75" height="5.3" rx="0.82" transform="translate(23.56 -24.02) rotate(17.8)"/><path class="cls-7" d="M91.65,53.42h0A2.12,2.12,0,0,1,93,56.08l-.38,1.18A2.12,2.12,0,0,1,90,58.63h0A2.12,2.12,0,0,1,88.61,56L89,54.79A2.12,2.12,0,0,1,91.65,53.42Z"/></g></g></svg>