<svg xmlns="http://www.w3.org/2000/svg" viewBox="0 0 191.47 381.71"><defs><style>.cls-1{fill:#2e211a;}.cls-2{fill:#fff279;}.cls-11,.cls-2,.cls-3,.cls-4,.cls-5,.cls-6,.cls-7,.cls-8{stroke:#2e211a;}.cls-11,.cls-12,.cls-16,.cls-2,.cls-3,.cls-4,.cls-7,.cls-8{stroke-linecap:round;}.cls-11,.cls-12,.cls-2,.cls-3,.cls-4,.cls-7,.cls-8{stroke-linejoin:round;}.cls-2,.cls-3,.cls-4{stroke-width:1.55px;}.cls-3{fill:#81cff4;}.cls-4{fill:#f8cee2;}.cls-5,.cls-6,.cls-7{fill:#fff;}.cls-13,.cls-15,.cls-16,.cls-5,.cls-6{stroke-miterlimit:10;}.cls-5{stroke-width:1.92px;}.cls-6,.cls-7,.cls-8{stroke-width:1.92px;}.cls-11,.cls-15,.cls-16,.cls-8{fill:none;}.cls-9{fill:#f9cfcd;}.cls-10{fill:#fbe8f2;}.cls-11{stroke-width:1.42px;}.cls-12,.cls-13{fill:#ea5b50;}.cls-12,.cls-13,.cls-16{stroke:#2d2019;}.cls-12{stroke-width:1.82px;}.cls-13{stroke-width:1.82px;}.cls-14{fill:#2d2019;}.cls-15{stroke:#ffdf43;stroke-width:1.64px;}.cls-16{stroke-width:1.82px;}</style></defs><g id="Layer_2" data-name="Layer 2"><g id="Layer_1-2" data-name="Layer 1"><path class="cls-1" d="M23.12,84.12C22,101,27.15,117.5,34.3,132.61a304.8,304.8,0,0,0,26.55,44.67Q68.32,187.92,76.57,198c5.31,6.48,11.1,12.88,14.34,20.72,3.33,8.06,3.93,17,3.62,25.6A150.2,150.2,0,0,1,91,270.16c-3.58,16.84-8.76,33.35-10.86,50.48-.25,2.11-.46,4.22-.62,6.35-.07,1,1.44,1,1.51,0,1.29-17.4,6.33-34.16,10.23-51.08a191.51,191.51,0,0,0,4.36-25.27c.77-8.41.82-17.11-1.08-25.38s-6.18-15.08-11.36-21.57c-5.43-6.8-11-13.44-16.19-20.44a336.93,336.93,0,0,1-27.76-44.11c-7.88-15.08-14.45-31.53-14.77-48.77,0-2.08,0-4.17.16-6.25.06-1-1.44-1-1.51,0Z"/><path class="cls-1" d="M82.18,149.06q2.77,15.8,5.29,31.63c1.67,10.56,3.41,21.14,4.27,31.8A114.13,114.13,0,0,1,90.42,244c-1.86,9.33-5,18.34-7.74,27.42C79.55,281.57,76.8,292,76.62,302.7a.75.75,0,0,0,1.5,0c.34-19.51,9.17-37.38,13.29-56.16,4.53-20.62,1.37-41.51-1.84-62.07q-2.79-17.94-5.94-35.81c-.17-1-1.62-.55-1.45.4Z"/><path class="cls-1" d="M132.67,129c-5.85.59-7.31,8-8.59,12.57-2,7.12-3.63,14.33-5.32,21.52-3.18,13.61-6.58,27.33-12.81,39.93a78,78,0,0,1-12.64,18.65c-.66.71.4,1.78,1.07,1.07,18.83-20.21,22.9-48.52,29.42-74.25,1-3.79,1.92-7.61,3.15-11.32.89-2.71,2.47-6.33,5.72-6.66,1-.1,1-1.6,0-1.51Z"/><path class="cls-2" d="M19.24,84.77a1.74,1.74,0,0,0-.51,1.38,1.69,1.69,0,0,0,.74.87A13.46,13.46,0,0,0,25,89.45a8,8,0,0,0,5.8-1.18A.59.59,0,0,0,31,88a.67.67,0,0,0-.07-.51l-2.63-6.31a1.73,1.73,0,0,0-.48-.75,1.81,1.81,0,0,0-1-.27h0c-1.69-.14-2.91-.46-4.31.47C21.89,81.09,19.87,84.86,19.24,84.77Z"/><path class="cls-2" d="M72.49,46.27A36.17,36.17,0,0,0,2.67,27.35c0,.16-.09.32-.14.47-.82,2.51-8.72,29.08,17.36,54a11.35,11.35,0,0,0,10.85,2.71C41.11,81.7,61.58,73.47,70.58,51.67A35.57,35.57,0,0,0,72.49,46.27Z"/><path class="cls-3" d="M118.07,142.42a2,2,0,0,0-.91,1.39,1.82,1.82,0,0,0,.59,1.13,14.77,14.77,0,0,0,5.4,4,8.92,8.92,0,0,0,6.64.18.71.71,0,0,0,.34-.23.79.79,0,0,0,.05-.57l-1.29-7.57a1.92,1.92,0,0,0-.32-.93,2,2,0,0,0-1-.53h0c-1.81-.59-3.06-1.24-4.83-.58C121.89,139.08,118.73,142.68,118.07,142.42Z"/><path class="cls-3" d="M186,113.82a40.55,40.55,0,0,0-71.49-38.3q-.12.24-.27.48c-1.53,2.53-16.87,29.56,5.32,63.39a12.73,12.73,0,0,0,11.17,5.7c12-.5,36.48-4.32,51.83-25.86A40.39,40.39,0,0,0,186,113.82Z"/><path class="cls-4" d="M78.27,161.88a2.24,2.24,0,0,0-.16,1.88,2.13,2.13,0,0,0,1.21.82,17.14,17.14,0,0,0,7.62,1.14,10.18,10.18,0,0,0,6.76-3.42.77.77,0,0,0,.23-.41.89.89,0,0,0-.26-.6l-5.39-6.92a2.35,2.35,0,0,0-.84-.76,2.28,2.28,0,0,0-1.27,0h0c-2.13.39-3.74.42-5.16,2C80.3,156.45,79.08,161.78,78.27,161.88Z"/><path class="cls-4" d="M131,96.36a46.31,46.31,0,0,0-92.62.2c0,.21,0,.42,0,.63-.17,3.37-.95,38.86,39.68,60.85a14.52,14.52,0,0,0,14.31-.32c11.84-7,34.34-24.09,38.1-54.06A46.3,46.3,0,0,0,131,96.36Z"/><path class="cls-5" d="M135.36,358.37c-4.7-1.1-5.9,14.45-7.06,17-1.24,2.66,3.74,3.74,4.82.41S138.06,359,135.36,358.37Z"/><path class="cls-6" d="M143.49,360.54c-4.82.35-1.33,15.55-1.7,18.29-.39,2.91,4.69,2.47,4.73-1S146.25,360.34,143.49,360.54Z"/><path class="cls-7" d="M136.6,291.7l-5.55-9.53c-.85-1.47-2-3.12-3.69-3.2s-3,1.5-3.27,3.14a9.41,9.41,0,0,0,.94,4.83,77,77,0,0,0,6.52,12.75"/><path class="cls-7" d="M168,369.24c-.17,1.37-2.79,3.29-5.34,3.57-17.77,1.94-37.41-4.6-43.51-8.92-2.26-1.61-3.45-3.09-3.25-5.08C119,328.63,127.1,298,137.07,278.32a3.25,3.25,0,0,1,2-1.54c15.89.8,33.35,7.34,44.93,17.14a3.14,3.14,0,0,1,.88,3.7C174.88,327.63,171.26,342.73,168,369.24Z"/><path class="cls-8" d="M178.79,296.26c-2.26,3-37-8.69-37.74-14.83"/><path class="cls-9" d="M146.76,308.56a1,1,0,0,1-1.07.43c-.34-.14-.47-.62-.62-.92a2.31,2.31,0,0,0-1.5-1.39,4.47,4.47,0,0,0-2,.13c-.53.11-1.35.4-1.85,0s-.58-1.25-.85-1.78a1.87,1.87,0,0,0-1.52-1.1,7.47,7.47,0,0,0-2.07.51c-.95.2-.84-1-.74-1.59.13-.78-1.07-1.12-1.2-.33a3.36,3.36,0,0,0,.3,2.51,1.93,1.93,0,0,0,2.29.52,3.87,3.87,0,0,1,1.27-.38c.43,0,.57.41.71.76a3.38,3.38,0,0,0,1.3,2,3.42,3.42,0,0,0,2.38.1c.72-.16,1.71-.53,2.2.23s.67,1.68,1.72,1.92a2.35,2.35,0,0,0,2.31-1c.49-.64-.59-1.26-1.07-.63Z"/><ellipse class="cls-10" cx="154.61" cy="308.48" rx="1.4" ry="3.09" transform="translate(-185.89 364.39) rotate(-72.7)"/><path class="cls-10" d="M132.26,299.54c-.21.68-1.52.89-3,.51l.9-2.62C131.55,298,132.47,298.86,132.26,299.54Z"/><polyline class="cls-11" points="137.78 295.98 139.35 298.5 136.56 298.28"/><polyline class="cls-11" points="149.75 301.58 146.79 301.86 148.65 303.95"/><path class="cls-7" d="M165.46,322.41c4.87-.24,9.74-.48,14.6-.28a9,9,0,0,1,4.42,1,3.28,3.28,0,0,1,1.48,3.92c-.65,1.39-2.38,1.81-3.9,2.05q-8.73,1.42-17.56,2.11"/><path class="cls-12" d="M78.25,275.41c-3-3.81-13.62,7.49-16.09,8.7-2.63,1.28.54,5.24,3.47,3.34S79.94,277.58,78.25,275.41Z"/><path class="cls-12" d="M94.87,285.49c-4.2-1.68-7.48,12.52-8.91,14.67s2.93,4,4.4,1.06S97.27,286.45,94.87,285.49Z"/><path class="cls-12" d="M145.42,222.32c-.07-1.12-1.28-1.81-2.94-1.83.73-1,1-2,.51-2.75s-1.64-1-3-.65c.84-1.59.8-3.11-.23-3.69-1.27-.73-3.58.28-5.15,2.24s-1.81,4.14-.54,4.87l.21.1a.92.92,0,0,1,.58,1,1.6,1.6,0,0,0,.21,1.13,1.56,1.56,0,0,0,.81.63.93.93,0,0,1,.66.87v.07c.09,1.46,2.15,2.2,4.6,1.64S145.51,223.78,145.42,222.32Z"/><path class="cls-13" d="M113.31,286.61c12.86-22.88,20.71-20,29-35.05,11.7-21.14-13.83-46.35-35.17-36.66C91.58,222,73.94,242.31,65.78,261.22,54.62,287.09,99.33,311.49,113.31,286.61Z"/><ellipse class="cls-14" cx="113.93" cy="235.53" rx="2.32" ry="1.51" transform="translate(-134.37 153.06) rotate(-45.81)"/><ellipse class="cls-14" cx="121.95" cy="243.32" rx="2.32" ry="1.51" transform="translate(-137.53 161.17) rotate(-45.81)"/><path class="cls-15" d="M115.54,246.17a3,3,0,0,1-4.28-4.16c.68-.69,2.19-.33,3.37.82S116.22,245.48,115.54,246.17Z"/><line class="cls-16" x1="137.02" y1="222.01" x2="133.09" y2="225.66"/><path class="cls-16" d="M136.39,221.33s-4.2-3.44-8,.08"/><path class="cls-16" d="M137.63,222.77a7.39,7.39,0,0,1-.19,7.57"/><path class="cls-12" d="M96.79,223.81c-.15-1.21-2.47-13.06-5-12.76l-.23,0c-2.65.32-2.7,17.7-2.56,18.91"/><path class="cls-12" d="M126.59,266.24c.36,1,5.92,14.88,1.92,16-3,.83-8.6-8.52-9-9.49"/></g></g></svg>