<svg xmlns="http://www.w3.org/2000/svg" viewBox="0 0 112.67 162.94"><defs><style>.cls-1,.cls-2{fill:#ea5b50;}.cls-1,.cls-10,.cls-2,.cls-4,.cls-6,.cls-7,.cls-8,.cls-9{stroke:#2d2019;stroke-linecap:round;stroke-linejoin:round;}.cls-1{stroke-width:2.61px;}.cls-2,.cls-4{stroke-width:2.61px;}.cls-3{fill:#2d2019;}.cls-4,.cls-5{fill:none;}.cls-5{stroke:#ffef42;stroke-miterlimit:10;stroke-width:2.19px;}.cls-6{fill:#76a14f;}.cls-10,.cls-6,.cls-7,.cls-8{stroke-width:1.96px;}.cls-7{fill:#ddaf61;}.cls-8{fill:#ceced0;}.cls-9{fill:#7b7578;stroke-width:1.59px;}.cls-10{fill:#f4f0ad;}</style></defs><g id="Layer_2" data-name="Layer 2"><g id="Layer_1-2" data-name="Layer 1"><path class="cls-1" d="M39.64,134.46c-6.46,0-3.35,20.59-4.12,24.2-.82,3.84,6,3.76,6.4-.91S43.33,134.47,39.64,134.46Z"/><path class="cls-1" d="M46.47,134.66c-6.46.08-3,20.64-3.75,24.26-.75,3.86,6.06,3.67,6.39-1S50.16,134.62,46.47,134.66Z"/><path class="cls-1" d="M53.3,3.58c-1.28-1-3.16-.29-4.72,1.5-.43-1.73-1.33-2.93-2.52-3.1s-2.57.88-3.47,2.64c-1-2.4-2.65-3.76-4.24-3.19-2,.72-3,4.16-2.34,7.69s2.83,5.82,4.8,5.11l.31-.14a1.32,1.32,0,0,1,1.66.34,2.19,2.19,0,0,0,2.86.51,1.34,1.34,0,0,1,1.55.09l.08.07c1.68,1.26,4.39-.29,6.06-3.47S55,4.84,53.3,3.58Z"/><path class="cls-2" d="M84.37,108.68c-5.85-37.07,3.32-47.54-3.14-71.22C72.14,4.12,20.83,3.71,8.6,34.92c-8.93,22.76-10.49,67.84,0,95.37C22.94,168,91.29,152.48,84.37,108.68Z"/><ellipse class="cls-3" cx="36.44" cy="49.33" rx="2.16" ry="3.31"/><ellipse class="cls-3" cx="52.43" cy="49.33" rx="2.16" ry="3.31"/><line class="cls-4" x1="44.59" y1="12.44" x2="44.59" y2="20.11"/><path class="cls-4" d="M43.26,12.44s-7.69,1.06-7.69,8.44"/><path class="cls-4" d="M46,12.53a10.56,10.56,0,0,1,7.74,7.58"/><circle class="cls-5" cx="44.44" cy="59.76" r="2.21"/><path class="cls-6" d="M53.14,74.86a7.7,7.7,0,0,0-4.82,0A13.87,13.87,0,0,1,49.92,72c.74-1,0-3-1.43-2.63a11.09,11.09,0,0,0-3.24,1.24,8.41,8.41,0,0,0-1.24.88c-.12.1-.24.23-.37.36-.15-.15-.3-.31-.46-.46-.42-.44-.84-.88-1.3-1.28a5.91,5.91,0,0,0-3.3-1.58C37.34,68.43,36,70,37,71.1a6.85,6.85,0,0,1,1.56,2.66,8.56,8.56,0,0,0-6.93.43c-1.34.76-.51,2.6.7,2.9a9.16,9.16,0,0,1,6.44,6.32,1.63,1.63,0,0,0,2.07.93l4.51.49c1.55.17,3.24.49,4.11-1.17a15.16,15.16,0,0,0,.56-1.6,9.82,9.82,0,0,1,.85-1.72,10,10,0,0,1,2.53-2.71C54.29,77,54.35,75.23,53.14,74.86Z"/><path class="cls-7" d="M32.27,87,34.2,98c.26,1.47,1.22,2.5,2.33,2.5h14c1.11,0,2.07-1,2.33-2.5L54.8,87c.36-2.06-.78-4-2.33-4H34.6C33.05,82.93,31.91,84.91,32.27,87Z"/><rect class="cls-7" x="30.61" y="81.05" width="25.86" height="7.03" rx="3.15"/><path class="cls-2" d="M72,87.18c-1.14.88-17.37,13.94-20.29,9.13C49.5,92.69,64,78.85,65.16,78"/><path class="cls-2" d="M15.85,87.35C17,88.23,34,99.32,36,96.72l.18-.24C38.2,93.7,23.82,79,22.68,78.15"/><path class="cls-8" d="M88.59,161.61l8.93-1.15a2.3,2.3,0,0,0,1.7-3.43l-3.42-6a2.31,2.31,0,0,0-3.82-.27l-5.51,7.13A2.3,2.3,0,0,0,88.59,161.61Z"/><line class="cls-9" x1="97.51" y1="154.04" x2="92.52" y2="156.91"/><rect class="cls-8" x="98.28" y="149.87" width="3.29" height="5.59" transform="translate(17.19 315.28) rotate(-119.83)"/><rect class="cls-10" x="103.21" y="143.67" width="5.91" height="10.82" rx="1.73" transform="translate(29.64 315.34) rotate(-119.83)"/></g></g></svg>