<svg xmlns="http://www.w3.org/2000/svg" viewBox="0 0 293.74 222.77"><defs><style>.cls-1,.cls-2{fill:#ea5b50;}.cls-1,.cls-2,.cls-5,.cls-6,.cls-7,.cls-8,.cls-9{stroke:#2e211a;}.cls-1,.cls-8,.cls-9{stroke-linecap:round;}.cls-1,.cls-9{stroke-linejoin:round;}.cls-1{stroke-width:3.72px;}.cls-2,.cls-4,.cls-5,.cls-6,.cls-7,.cls-8{stroke-miterlimit:10;}.cls-2,.cls-8{stroke-width:3.72px;}.cls-3{fill:#2e211a;}.cls-12,.cls-4,.cls-8{fill:none;}.cls-4{stroke:#ffdf43;stroke-width:3.36px;}.cls-5,.cls-7,.cls-9{fill:#fff6b1;}.cls-5{stroke-width:2.55px;}.cls-6{fill:#b4dff3;}.cls-6,.cls-7{stroke-width:3.63px;}.cls-9{stroke-width:3.72px;}.cls-10{fill:#4c4c4c;}.cls-11{fill:#e7c479;}.cls-13{fill:#efe9e6;}.cls-14{fill:#ead1ca;}</style></defs><g id="Layer_2" data-name="Layer 2"><g id="Layer_1-2" data-name="Layer 1"><path class="cls-1" d="M139.12,180.52c-9.74-1.36-9.29,30.39-11.19,35.68-2,5.64,8.27,6.92,9.85,0S144.7,181.3,139.12,180.52Z"/><path class="cls-1" d="M177.84,171.63c-8.54,3.51,6.88,29,7.85,34.19,1,5.52,10,1.67,8-4.71S182.73,169.62,177.84,171.63Z"/><path class="cls-1" d="M161.94,7c-1.69-1.54-4.45-.82-6.91,1.51-.38-2.51-1.5-4.35-3.17-4.75s-3.78.92-5.29,3.3c-1-3.53-3.28-5.7-5.61-5.1-2.9.76-4.85,5.52-4.35,10.63s3.25,8.66,6.15,7.9a4,4,0,0,0,.45-.15,1.87,1.87,0,0,1,2.31.7,3.37,3.37,0,0,0,1.91,1.35,3.28,3.28,0,0,0,2.1-.24,1.89,1.89,0,0,1,2.19.34l.11.1c2.22,2,6.29.17,9.08-4.13S164.16,9,161.94,7Z"/><path class="cls-2" d="M206.48,147c-13.76-51.85,1.81-58.87-7.41-92.71-13-47.65-86.31-48.23-103.8-3.63-12.76,32.53-9.63,87.5,5.36,126.84C121.14,231.32,221.44,203.38,206.48,147Z"/><ellipse class="cls-3" cx="134.6" cy="71.24" rx="3.09" ry="4.74"/><ellipse class="cls-3" cx="157.46" cy="71.24" rx="3.09" ry="4.74"/><path class="cls-4" d="M152.13,84.54c0,2-2.72,5.5-6.09,5.5s-6.11-3.51-6.11-5.5S142.66,81,146,81,152.13,82.56,152.13,84.54Z"/><rect class="cls-5" x="234.96" y="124.5" width="4.97" height="21.24" rx="2.48" transform="translate(-34.35 107.48) rotate(-23.84)"/><rect class="cls-5" x="248.05" y="119.03" width="4.97" height="21.24" rx="2.48" transform="translate(-31.03 112.3) rotate(-23.84)"/><rect class="cls-6" x="228.56" y="130.69" width="56.06" height="60.42" rx="7.87" transform="translate(-43.14 117.41) rotate(-23.84)"/><rect class="cls-6" x="224.03" y="116.67" width="29.02" height="6.77" rx="3.19" transform="translate(-28.17 106.64) rotate(-23.84)"/><circle class="cls-7" cx="254.83" cy="195.37" r="5.31"/><circle class="cls-7" cx="283.26" cy="182.81" r="5.31"/><path class="cls-1" d="M198.18,110.09c2.1.25,32.59,3.17,30.85,11.47-1.3,6.25-28.38,6.07-30.48,5.83"/><line class="cls-8" x1="149.19" y1="18.53" x2="148.63" y2="29.47"/><path class="cls-8" d="M147.29,18.43s-11,.94-11.59,11.48"/><path class="cls-8" d="M151.17,18.76a15.12,15.12,0,0,1,10.5,11.38"/><path class="cls-1" d="M90.69,99c-2-1.57-19.37-13.79-22.57-9.81l-.29.36C64.4,93.77,89.08,119.33,91,120.89"/><path class="cls-9" d="M62.77,84.42A24.71,24.71,0,0,0,14.84,73.17c-7.58-.68-12.56-.25-12.95,1.43-.74,3.15,14.74,9.48,34.58,14.14S73,94.62,73.73,91.47C74.13,89.79,69.86,87.19,62.77,84.42Z"/><path class="cls-10" d="M264.8,159.25l-.4,0c-1.75-.17-3.3-1.43-4.34-3.56a15.67,15.67,0,0,1,1.41-14.94c1.42-1.89,3.18-2.84,4.93-2.68s3.3,1.43,4.35,3.56a15.74,15.74,0,0,1-1.41,14.94A5.88,5.88,0,0,1,264.8,159.25Zm1.21-21a5.68,5.68,0,0,0-4.4,2.63,15.53,15.53,0,0,0-1.39,14.76c1,2.07,2.51,3.29,4.2,3.45a2.3,2.3,0,0,0,.37,0c3.37,0,6.46-4.29,7-9.83a14.39,14.39,0,0,0-1.18-7.55c-1-2.07-2.51-3.3-4.2-3.46Z"/><path class="cls-11" d="M264.62,158.6h-.16c-1.52-.15-2.88-1.28-3.82-3.2a13.81,13.81,0,0,1-1.13-7.31c.5-5.34,3.5-9.55,6.68-9.39h.15c1.52.14,2.88,1.28,3.83,3.19a13.9,13.9,0,0,1,1.13,7.31C270.8,154.54,267.8,158.76,264.62,158.6Z"/><path class="cls-10" d="M269.86,150.06l-3.44-3,.3-2.42a3.07,3.07,0,0,0-.44-1.66.32.32,0,0,0-.54,0,3.09,3.09,0,0,0-.77,1.53l-.21,2.43-4,2.25a.3.3,0,0,0-.14.19.32.32,0,0,0,.06.23l.14.17a.26.26,0,0,0,.28.09l1.51-.35h0l1.89.08-.11,1.22a4,4,0,0,0,0,.5.28.28,0,0,0,0,.09l-1.4.78a.27.27,0,0,0-.11.38l.1.17a.28.28,0,0,0,.27.15l1.27-.13a2.89,2.89,0,0,0,.14.47.34.34,0,0,0,.27.22h0a.33.33,0,0,0,.28-.16,3.45,3.45,0,0,0,.23-.43l1.21.39a.28.28,0,0,0,.3-.09l.13-.15a.29.29,0,0,0,.07-.2.27.27,0,0,0-.1-.19l-1.21-1.06s0-.05,0-.08a4.36,4.36,0,0,0,.06-.49l.15-1.23L268,150h0l1.4.66a.3.3,0,0,0,.3,0l.16-.13a.31.31,0,0,0,.11-.22A.28.28,0,0,0,269.86,150.06Z"/><path class="cls-10" d="M263.85,154.91l.13.34a.07.07,0,0,0,0,0l.36.09a.07.07,0,0,1,0,.13l-.28.22s0,0,0,.06l0,.37c0,.06-.06.09-.11.06l-.3-.2a.09.09,0,0,0-.07,0l-.33.14a.07.07,0,0,1-.1-.09l.09-.35a.09.09,0,0,0,0-.07l-.24-.27a.07.07,0,0,1,.05-.12l.37,0a.05.05,0,0,0,0,0l.19-.31C263.76,154.85,263.83,154.85,263.85,154.91Z"/><path class="cls-10" d="M264.86,140.81l0,.36a.14.14,0,0,0,0,.07l.28.24a.07.07,0,0,1,0,.12l-.35.07a.08.08,0,0,0-.05.05l-.14.33a.08.08,0,0,1-.13,0l-.18-.32a.07.07,0,0,0-.06,0l-.36,0a.07.07,0,0,1-.05-.12l.25-.26a.09.09,0,0,0,0-.07l-.08-.35a.08.08,0,0,1,.1-.09l.33.16h.07l.31-.19A.08.08,0,0,1,264.86,140.81Z"/><path class="cls-10" d="M270.41,144.38l0,.36s0,0,0,.06l.28.24a.08.08,0,0,1,0,.13l-.35.07a.07.07,0,0,0,0,0l-.15.34a.06.06,0,0,1-.12,0l-.18-.31s0,0-.06,0l-.36,0a.07.07,0,0,1-.05-.12l.25-.27a.07.07,0,0,0,0-.06l-.08-.36a.07.07,0,0,1,.1-.08l.33.15H270l.31-.19A.07.07,0,0,1,270.41,144.38Z"/><path class="cls-12" d="M243.31,158.79a.13.13,0,0,1-.12,0c-1.72-.27-7.5-1.32-9.38-3.7a5.18,5.18,0,0,1,8.13-6.43,9.83,9.83,0,0,1,1.47,5.12,32.26,32.26,0,0,1,0,4.86A.13.13,0,0,1,243.31,158.79Z"/><path class="cls-10" d="M243.75,159.14l-.09.09a.74.74,0,0,1-.56.14c-1.77-.27-7.72-1.36-9.72-3.9a5.75,5.75,0,0,1,.94-8.06,5.75,5.75,0,0,1,8.06,1c2,2.54,1.69,8.58,1.55,10.36A.8.8,0,0,1,243.75,159.14Zm-10-10.81a5.5,5.5,0,0,0-.15,7c2,2.47,7.82,3.54,9.57,3.81a.48.48,0,0,0,.54-.43c.14-1.76.46-7.72-1.5-10.19h0a5.48,5.48,0,0,0-7.71-.9A6.38,6.38,0,0,0,233.72,148.33Z"/><path class="cls-11" d="M243.24,158.72h0c-1.71-.27-7.45-1.31-9.31-3.67a5.07,5.07,0,0,1,.84-7.13,4.73,4.73,0,0,1,1-.61A5.07,5.07,0,0,1,239,147a5,5,0,0,1,2.85,1.8c1.86,2.36,1.55,8.18,1.41,9.91C243.27,158.7,243.25,158.72,243.24,158.72Z"/><circle class="cls-13" cx="237.88" cy="151.91" r="4.29"/><path class="cls-14" d="M247.83,168.61a.31.31,0,0,1-.25-.19.31.31,0,0,1,0-.31l6.27-8.16a.33.33,0,0,1,.29-.12.31.31,0,0,1,.25.19l3.93,9.51a.29.29,0,0,1-.05.31.28.28,0,0,1-.28.12Z"/><path class="cls-10" d="M257.44,168.07h0l-8.56-1.14,0,0,0,0,8.56,1.14a0,0,0,0,1,0,0Z"/><path class="cls-10" d="M258.07,170.54H258l-10.2-1.36a.88.88,0,0,1-.71-.54.87.87,0,0,1,.12-.88l6.28-8.16a.86.86,0,0,1,.82-.34.86.86,0,0,1,.7.54l3.93,9.51a.89.89,0,0,1-.12.89A.87.87,0,0,1,258.07,170.54Zm-5.19-.87,5.1.68a.69.69,0,0,0,.64-.27.67.67,0,0,0,.09-.69l-3.92-9.52a.7.7,0,0,0-.56-.42.66.66,0,0,0-.64.26l-6.28,8.16a.7.7,0,0,0-.09.7.69.69,0,0,0,.55.42Z"/></g></g></svg>