<svg xmlns="http://www.w3.org/2000/svg" viewBox="0 0 206.82 171.91"><defs><style>.cls-1,.cls-2{fill:#ea5b50;}.cls-1,.cls-2,.cls-3{stroke:#2d2019;}.cls-1,.cls-12,.cls-14,.cls-3,.cls-6,.cls-7{stroke-linecap:round;}.cls-1,.cls-12,.cls-14,.cls-6,.cls-7{stroke-linejoin:round;}.cls-1{stroke-width:2.49px;}.cls-10,.cls-2,.cls-3,.cls-4,.cls-5{stroke-miterlimit:10;}.cls-2,.cls-3{stroke-width:2.49px;}.cls-10,.cls-12,.cls-14,.cls-3,.cls-7{fill:none;}.cls-15,.cls-4,.cls-5,.cls-6{fill:#fff;}.cls-12,.cls-14,.cls-4,.cls-5,.cls-6,.cls-7{stroke:#2e211a;}.cls-4{stroke-width:2.63px;}.cls-5,.cls-6,.cls-7{stroke-width:2.63px;}.cls-8{fill:#f9cfcd;}.cls-9{fill:#fbe8f2;}.cls-10{stroke:#ffec45;stroke-width:2.42px;}.cls-11{fill:#2e211a;}.cls-12{stroke-width:1.82px;}.cls-13{fill:#2d2019;}.cls-14{stroke-width:1.83px;}.cls-16{fill:#1d1d1b;}.cls-17{fill:#fff164;}</style></defs><g id="Layer_2" data-name="Layer 2"><g id="Layer_1-2" data-name="Layer 1"><path class="cls-1" d="M133.49,143.62c-6.52-.91-6.22,20.35-7.5,23.89-1.35,3.77,5.55,4.63,6.6,0S137.23,144.14,133.49,143.62Z"/><path class="cls-1" d="M159.41,137.67c-5.71,2.35,4.61,19.42,5.26,22.89.69,3.69,6.68,1.12,5.33-3.15S162.68,136.32,159.41,137.67Z"/><path class="cls-1" d="M148.14,27.94c-1.08-1.09-2.95-.72-4.68.74-.16-1.69-.84-3-1.94-3.3s-2.56.47-3.66,2c-.56-2.41-2-3.94-3.55-3.63-2,.39-3.46,3.5-3.32,6.94s1.83,5.91,3.79,5.52a1.58,1.58,0,0,0,.31-.09,1.26,1.26,0,0,1,1.52.56,2.25,2.25,0,0,0,1.23,1,2.22,2.22,0,0,0,1.41-.08,1.28,1.28,0,0,1,1.45.31l.07.08c1.4,1.43,4.19.36,6.23-2.41S149.54,29.38,148.14,27.94Z"/><path class="cls-2" d="M178.59,121.17c-9.21-34.71,1.21-39.41-5-62.07-8.7-31.9-57.79-32.29-69.5-2.43-8.54,21.78-6.45,58.58,3.59,84.92C121.45,177.63,188.6,158.93,178.59,121.17Z"/><path class="cls-1" d="M173.21,87.44c1.41.17,21.82,2.12,20.66,7.68-.87,4.19-20.59,4-22,3.84"/><line class="cls-3" x1="139.16" y1="35.15" x2="138.36" y2="42.44"/><path class="cls-3" d="M137.89,35s-7.41.2-8.19,7.22"/><path class="cls-3" d="M140.47,35.38a10.11,10.11,0,0,1,6.57,8"/><path class="cls-1" d="M108.25,102.47c1.57.56,24.4,6.81,25.54,3.59l.1-.29c1.23-3.45-20-14.14-21.59-14.7"/><path class="cls-4" d="M49.74,141.24c-6.36-1.81-9,19.37-10.78,22.72-1.87,3.56,4.87,5.37,6.57.88S53.38,142.28,49.74,141.24Z"/><path class="cls-5" d="M71.33,140.5c-6.61.15-2.85,21.17-3.53,24.89-.73,4,6.24,3.68,6.53-1.11S75.12,140.41,71.33,140.5Z"/><path class="cls-6" d="M36.05,89.74,24.12,80.52c-1.85-1.42-4.14-2.93-6.34-2.16S14.73,81.82,15.25,84s2.1,4,3.67,5.63a106,106,0,0,0,14.85,12.82"/><path class="cls-6" d="M17.23,147.71c-.43,1.84,2.83,5.18,6.17,6.26,23.28,7.52,51.41,4.17,60.78.07,3.48-1.52,4.83-3.34,5.76-5.9,10.64-29.23,11.79-84.56,3.88-113.74a4.58,4.58,0,0,0-2.28-2.62c-21.52-3.32-46.73.61-65,10.56a4.29,4.29,0,0,0-2.2,4.71C29.5,90.05,25.58,112.14,17.23,147.71Z"/><path class="cls-7" d="M32.93,46.91c2.2,4.66,52-1.41,54.69-9.44"/><path class="cls-8" d="M62.42,71.21c-.13.59-.52,1.4-1.26,1.28-.5-.07-.93-.58-1.31-.87A3,3,0,0,0,57.24,71,6.09,6.09,0,0,0,55,72.23c-.6.48-1.43,1.3-2.27,1.17s-1.56-1.27-2.26-1.77A2.51,2.51,0,0,0,48,71.28,8.33,8.33,0,0,0,46,73c-1.14,1-1.71-.52-2-1.49a.85.85,0,0,0-1.64.46,4.23,4.23,0,0,0,2,2.92,2.69,2.69,0,0,0,3-.84,7.23,7.23,0,0,1,1.17-1.11c.6-.35,1,.07,1.49.48a4.44,4.44,0,0,0,2.76,1.69A4.29,4.29,0,0,0,55.52,74c.69-.52,1.73-1.64,2.7-1.37.57.15,1,.72,1.48,1a2.76,2.76,0,0,0,1.86.53,3.09,3.09,0,0,0,2.5-2.54c.23-1.07-1.41-1.53-1.64-.45Z"/><ellipse class="cls-9" cx="72.04" cy="66.6" rx="4.23" ry="1.91" transform="translate(-8.96 11.24) rotate(-8.4)"/><ellipse class="cls-9" cx="36.05" cy="69.44" rx="4.23" ry="1.91" transform="translate(-9.76 6.01) rotate(-8.4)"/><path class="cls-9" d="M98.36,66.25c0-.1,0-.3-.06-.56h0Z"/><path class="cls-9" d="M97.73,61.37l.08.56h0Z"/><path class="cls-9" d="M97.81,61.93l.48,3.76h0c-.13-1-.37-2.83-.49-3.76Z"/><ellipse class="cls-10" cx="135.1" cy="78.09" rx="2.01" ry="3.46"/><path class="cls-11" d="M76.17,88.29a34.45,34.45,0,0,1-7.71,1.54c-2.7.1-4.9-.83-7.42-1.59a7.86,7.86,0,0,0-6.08.25,5.27,5.27,0,0,0-2.57,4.36c-.27,4.3,3.45,7,7.15,8.12a27.88,27.88,0,0,0,12.84.62,29.11,29.11,0,0,0,13.1-6c1.22-1-.5-2.67-1.71-1.71a26.66,26.66,0,0,1-20.88,5.33c-3.13-.55-7.69-1.81-8.07-5.6a2.93,2.93,0,0,1,2.3-3.41c2-.41,4,.6,5.83,1.21,4.63,1.55,9.31.44,13.87-.83a1.21,1.21,0,0,0-.65-2.34Z"/><polyline class="cls-12" points="44.13 61.46 47.45 63.36 44.16 64.82"/><polyline class="cls-12" points="61.11 60.45 57.93 62.58 61.32 63.81"/><path class="cls-13" d="M57,59.35l2-1.62a.89.89,0,0,0,.27-.64.92.92,0,0,0-.91-.91l-.24,0a1,1,0,0,0-.4.24l-2,1.62a.91.91,0,0,0,.64,1.55l.24,0a1,1,0,0,0,.41-.24Z"/><polyline class="cls-14" points="126.37 65.69 129.72 68.01 126.48 70.07"/><polyline class="cls-14" points="143.61 65.69 140.27 68.01 143.5 70.07"/><path class="cls-15" d="M42.8,12.82a8.24,8.24,0,0,0-6.88-8.07A9.38,9.38,0,0,0,30.71.48a8.28,8.28,0,0,0-7.29.84,6.87,6.87,0,0,0-3.14,5.21,9.36,9.36,0,0,0-7.2,9.71,9.53,9.53,0,0,0,8.74,9c3,3.34,7.87,5,12.24,2.54a9.15,9.15,0,0,0,4.66-6.89A9.18,9.18,0,0,0,42.8,12.82Z"/><path class="cls-15" d="M205.58,68.86a6.62,6.62,0,0,0-.56-7.62,7.6,7.6,0,0,0-10.34-1.68c-.29.19-.56.4-.82.61a7.39,7.39,0,0,0-8.08,5,7.08,7.08,0,0,0,4.54,8.49,13.79,13.79,0,0,0,.42,4.37c.76,2.87,4.82,5.07,7.48,3a11.76,11.76,0,0,0,3.39-3.9,5.4,5.4,0,0,0,5-3.8A4.76,4.76,0,0,0,205.58,68.86Z"/><path class="cls-15" d="M124.12,3l-.42,0a4,4,0,0,0-3.37-1.65,4,4,0,0,0-3,1.22,4.24,4.24,0,0,0-2.39-.68c-4.59,0-5.43,5.82-2.52,8-1.48,2.58-.28,6.73,3.6,6.73a4,4,0,0,0,3.1-1.3,4.63,4.63,0,0,0,1.44.22h.33a4.07,4.07,0,0,0,4.19-3.89C129.72,10.75,129.41,3,124.12,3Z"/><path class="cls-15" d="M5.63,104.72l-.19.17a2.36,2.36,0,0,0-2.18.51,2.39,2.39,0,0,0-.94,1.7,2.55,2.55,0,0,0-1.37.58c-2.12,1.73-.33,4.74,1.82,4.64A2.62,2.62,0,0,0,7,114.08a2.43,2.43,0,0,0,.95-1.76,2.73,2.73,0,0,0,.74-.44l.16-.13a2.42,2.42,0,0,0,.48-3.37C11.13,106.2,8.08,102.74,5.63,104.72Z"/><path class="cls-16" d="M102.5,42.1A21.4,21.4,0,0,1,112.71,31c.55-.28.06-1.11-.49-.84a22.35,22.35,0,0,0-10.65,11.64c-.23.58.7.83.93.26Z"/><path class="cls-16" d="M106.29,41.69a14.94,14.94,0,0,1,13.23-8.59.49.49,0,0,0,0-1,15.91,15.91,0,0,0-14.07,9.07c-.26.56.57,1,.84.49Z"/><path class="cls-17" d="M18.14,49.42a27.51,27.51,0,0,0-3.73-6.81,2.5,2.5,0,0,0-3.32-.87,2.43,2.43,0,0,0-.87,3.31,23.39,23.39,0,0,1,3.24,5.66,2.5,2.5,0,0,0,3,1.69A2.44,2.44,0,0,0,18.14,49.42Z"/><path class="cls-17" d="M18,54.12c-3.12,0-3.13,4.85,0,4.85S21.13,54.12,18,54.12Z"/></g></g></svg>