<svg xmlns="http://www.w3.org/2000/svg" viewBox="0 0 149.14 371.45"><defs><style>.cls-1,.cls-14,.cls-2{fill:#ea5b50;}.cls-1,.cls-10,.cls-14,.cls-2,.cls-4,.cls-8,.cls-9{stroke:#2e211a;}.cls-1,.cls-10,.cls-14,.cls-4,.cls-8,.cls-9{stroke-linejoin:round;}.cls-1{stroke-width:2.39px;}.cls-2,.cls-3,.cls-5,.cls-7{stroke-miterlimit:10;}.cls-2,.cls-4{stroke-width:2.36px;}.cls-10,.cls-3,.cls-4,.cls-5,.cls-7{fill:none;}.cls-3{stroke:#2b2019;}.cls-10,.cls-14,.cls-3,.cls-4,.cls-9{stroke-linecap:round;}.cls-14,.cls-3{stroke-width:2.39px;}.cls-5,.cls-7{stroke:#ffdf43;}.cls-5{stroke-width:2.16px;}.cls-6{fill:#2e211a;}.cls-7{stroke-width:2.16px;}.cls-8{fill:#f4bf72;stroke-width:2.25px;}.cls-9{fill:#fff;}.cls-10,.cls-9{stroke-width:2.54px;}.cls-11{fill:#f9cfcd;}.cls-12{fill:#fbe8f2;}.cls-13{fill:#ffdf43;}</style></defs><g id="Layer_2" data-name="Layer 2"><g id="Layer_1-2" data-name="Layer 1"><path class="cls-1" d="M145.85,49c.88-1.18.26-2.91-1.38-4.34,1.58-.39,2.7-1.22,2.85-2.31s-.82-2.36-2.43-3.19c2.2-.88,3.46-2.44,2.93-3.9-.66-1.81-3.82-2.77-7.07-2.15s-5.34,2.6-4.69,4.41a2.39,2.39,0,0,0,.13.28,1.21,1.21,0,0,1-.31,1.53,2,2,0,0,0-.47,2.63,1.2,1.2,0,0,1-.09,1.42l-.06.08c-1.16,1.54.27,4,3.2,5.56S144.69,50.54,145.85,49Z"/><path class="cls-1" d="M3.29,49C2.4,47.82,3,46.09,4.66,44.66,3.08,44.27,2,43.44,1.82,42.35S2.63,40,4.24,39.16C2,38.28.79,36.72,1.32,35.26c.65-1.81,3.82-2.77,7.06-2.15s5.35,2.6,4.69,4.41a2.36,2.36,0,0,1-.12.28,1.21,1.21,0,0,0,.31,1.53,2.18,2.18,0,0,1,.75,1.3A2.07,2.07,0,0,1,13.72,42a1.23,1.23,0,0,0,.09,1.42l.06.08C15,45,13.6,47.49,10.68,49S4.45,50.54,3.29,49Z"/><path class="cls-2" d="M48.09,76.47c34.25-3.92,34.24-1,57.34-1.33,40-.49,41.67-56.56,13-67.46-20.92-8-62.33-9.35-87.63,0C-3.82,20.46,8.67,81,48.09,76.47Z"/><line class="cls-3" x1="137.69" y1="41.31" x2="130.68" y2="40.74"/><path class="cls-3" d="M137.8,40.09s-.4-7.12-7.16-7.67"/><path class="cls-3" d="M137.51,42.57A9.71,9.71,0,0,1,130,49.1"/><polyline class="cls-4" points="106.79 29.57 103.81 33.87 101.16 29.71"/><polyline class="cls-4" points="106.79 49.23 103.81 44.94 101.16 49.09"/><path class="cls-5" d="M95,43.42A4.28,4.28,0,0,1,91.5,39.5,4.29,4.29,0,0,1,95,35.57c1.28,0,2.31,1.76,2.31,3.93S96.31,43.42,95,43.42Z"/><path class="cls-1" d="M145.85,194.43c.88-1.17.26-2.9-1.38-4.33,1.58-.39,2.7-1.22,2.85-2.31s-.82-2.37-2.43-3.19c2.2-.89,3.46-2.44,2.93-3.9-.66-1.81-3.82-2.77-7.07-2.15s-5.34,2.6-4.69,4.41c0,.09.08.19.13.28a1.2,1.2,0,0,1-.31,1.52,2.13,2.13,0,0,0-.75,1.31,2.11,2.11,0,0,0,.28,1.32,1.22,1.22,0,0,1-.09,1.43l-.06.07c-1.16,1.55.27,4,3.2,5.57S144.69,196,145.85,194.43Z"/><path class="cls-1" d="M3.29,194.43c-.89-1.17-.26-2.9,1.37-4.33-1.58-.39-2.69-1.22-2.84-2.31s.81-2.37,2.42-3.19c-2.2-.89-3.45-2.44-2.92-3.9.65-1.81,3.82-2.77,7.06-2.15s5.35,2.6,4.69,4.41c0,.09-.08.19-.12.28a1.2,1.2,0,0,0,.31,1.52,2.18,2.18,0,0,1,.75,1.31,2.05,2.05,0,0,1-.29,1.32,1.25,1.25,0,0,0,.09,1.43l.06.07c1.16,1.55-.27,4-3.19,5.57S4.45,196,3.29,194.43Z"/><path class="cls-2" d="M48.09,221.91c34.25-3.93,34.24-1.06,57.34-1.34,40-.48,41.67-56.55,13-67.46-20.92-8-62.33-9.34-87.63,0C-3.82,165.9,8.67,226.43,48.09,221.91Z"/><ellipse class="cls-6" cx="103.81" cy="177.59" rx="3.04" ry="1.99"/><ellipse class="cls-6" cx="103.81" cy="192.28" rx="3.04" ry="1.99"/><circle class="cls-7" cx="92.89" cy="184.93" r="2.02"/><line class="cls-3" x1="137.69" y1="186.74" x2="130.68" y2="186.17"/><path class="cls-3" d="M137.8,185.52s-.4-7.11-7.16-7.66"/><path class="cls-3" d="M137.51,188a9.71,9.71,0,0,1-7.52,6.53"/><rect class="cls-8" x="70.87" y="281.82" width="8.62" height="88.5" rx="3.95"/><path class="cls-9" d="M24.94,151.07c-1.81.27-5.17-2.41-6.42-5.56-8.72-22-7.26-49.35-3.88-58.65,1.25-3.45,2.73-5.49,5.33-5.93,39.6-6.65,81.49-7.08,110.14-1.27a4.39,4.39,0,0,1,2.67,2c4.55,20.57,2.34,45.14-6.11,63.36a4.15,4.15,0,0,1-4.41,2.41C80.44,145.21,59.91,145.89,24.94,151.07Z"/><path class="cls-10" d="M121.85,139.2c-4.62-1.84-1.89-50.26,5.69-53.37"/><path class="cls-11" d="M93,119.41c-.52-.14-1.23-.52-1.2-1.16s.67-1,1-1.37a2.87,2.87,0,0,0,.7-2.42,6.24,6.24,0,0,0-1.24-2.36c-.43-.6-1.16-1.43-.92-2.23s1.29-1.36,1.79-2a2.42,2.42,0,0,0,.41-2.37,8.58,8.58,0,0,0-1.6-2.06c-.89-1.14.66-1.63,1.57-1.86a.83.83,0,0,0-.44-1.59,4.06,4.06,0,0,0-2.89,1.86,2.64,2.64,0,0,0,.74,2.92c.72.82,1.59,1.44.62,2.43-.79.81-1.72,1.48-1.87,2.68a4.18,4.18,0,0,0,1,2.9c.48.69,1.45,1.66,1.14,2.59-.21.61-.88,1-1.23,1.58a2.6,2.6,0,0,0-.42,1.58,3,3,0,0,0,2.39,2.5.83.83,0,0,0,.44-1.59Z"/><circle class="cls-6" cx="102.34" cy="103.82" r="2.53"/><circle class="cls-6" cx="102.34" cy="117.38" r="2.53"/><ellipse class="cls-12" cx="96.1" cy="128.47" rx="1.85" ry="4.09"/><ellipse class="cls-12" cx="96.1" cy="93.12" rx="1.85" ry="4.09"/><path class="cls-12" d="M99.09,77.27l.54,0h0Z"/><path class="cls-12" d="M103.84,77.57l-.55,0h0Z"/><path class="cls-12" d="M103.29,77.53l-3.66-.23h0l3.66.23Z"/><path class="cls-9" d="M24.94,296.51c-1.81.26-5.17-2.41-6.42-5.56-8.72-22-7.26-49.35-3.88-58.65,1.25-3.45,2.73-5.5,5.33-5.93,39.6-6.66,81.49-7.08,110.14-1.28a4.4,4.4,0,0,1,2.67,2c4.55,20.57,2.34,45.14-6.11,63.36a4.16,4.16,0,0,1-4.41,2.41C80.44,290.65,59.91,291.33,24.94,296.51Z"/><path class="cls-10" d="M121.85,284.63c-4.62-1.83-1.89-50.25,5.69-53.36"/><circle class="cls-6" cx="102.34" cy="246.46" r="2.53"/><circle class="cls-6" cx="102.34" cy="260.02" r="2.53"/><ellipse class="cls-12" cx="96.1" cy="271.11" rx="1.85" ry="4.09"/><ellipse class="cls-12" cx="96.1" cy="235.76" rx="1.85" ry="4.09"/><path class="cls-12" d="M99.09,222.7l.54,0h0Z"/><path class="cls-12" d="M103.84,223l-.55,0h0Z"/><path class="cls-12" d="M103.29,223l-3.66-.23h0l3.66.24Z"/><path class="cls-6" d="M110.66,242.85a9.94,9.94,0,0,1,.56,4.49.58.58,0,0,0,.58.58.6.6,0,0,0,.59-.58,10.87,10.87,0,0,0-.61-4.8.6.6,0,0,0-.72-.41.59.59,0,0,0-.4.72Z"/><path class="cls-6" d="M110.72,260a4.81,4.81,0,0,1-.72,4.48.59.59,0,0,0,.21.8.61.61,0,0,0,.8-.21,5.94,5.94,0,0,0,.84-5.38.59.59,0,0,0-1.13.31Z"/><path class="cls-11" d="M97.42,254.45a3.2,3.2,0,0,0,.25-4.13,2.83,2.83,0,0,0-3.84-.47,8.71,8.71,0,0,0-1.17,1.46c-.12.15-.22.27-.35.29a2.52,2.52,0,0,1-.77-.22,1.56,1.56,0,0,0-2,.6,2.1,2.1,0,0,0-.19.53,1.16,1.16,0,0,0,0,.18c0,.26,0,.08,0,.06s-.17-.06-.22-.06a4.28,4.28,0,0,0-.62,0A1.82,1.82,0,0,0,87,254.13a1.86,1.86,0,0,0,.74,2,.83.83,0,0,0,1.13-.29.85.85,0,0,0-.3-1.13c.07,0,0-.12,0-.1a.41.41,0,0,1,.08-.23.21.21,0,0,1,.08-.06c-.15.05.23,0,.22,0a4.34,4.34,0,0,0,.51,0,1.53,1.53,0,0,0,1.08-.52,1.55,1.55,0,0,0,.31-.58,3,3,0,0,0,.11-.46s-.18.12-.18.11.42.12.46.14a2.27,2.27,0,0,0,2-.05,4.52,4.52,0,0,0,1.22-1.39,1.15,1.15,0,0,1,1.14-.64,1.36,1.36,0,0,1,.65,2.33c-.72.79.45,1.95,1.16,1.17Z"/><path class="cls-13" d="M64.42,264.93a9,9,0,0,0-2.15-11.31,2,2,0,0,1-.52-.37c0,.08,0,.16,0,.23-.06-.11-.12-.25-.18-.37l0,0v0l0,0-.06-.12v0c0-.08-.08-.14-.11-.19s0,0,.07,0l-.15-.51c0-.77,0-2,0-2.11v-.22c0-.12.07-.27.12-.49a22.39,22.39,0,0,1,.65-2.4c.1-.31.22-.62.33-.93.52-1,1-2,1.49-3,2.14-4.23,4.47-8.61,5.27-13.32a26.21,26.21,0,0,0-2.63-16.56c-.87-1.79-1.93-3.5-2.91-5.24-.49-.87-.95-1.75-1.4-2.64a1,1,0,0,1,0-.1l0,.06,0-.08a5.37,5.37,0,0,1-.19-.57c-.14-.41-.28-.82-.4-1.24s-.27-1-.39-1.55c0-.11-.08-.48-.14-.78s-.07-.69-.08-.81c0-.53,0-1.06,0-1.59s0-1.06.06-1.59c0-.14.07-.59.11-.9l.15-.69c.15-.65.33-1.29.53-1.93s.35-1,.53-1.53c0-.11.15-.37.23-.57.38-.83.77-1.66,1.18-2.49C64.9,186.64,66,184.36,67,182a39.23,39.23,0,0,0,3.16-14.65c.17-9.73-3.56-18.25-9.28-25.9a57.88,57.88,0,0,1-3.37-4.83c-.4-.67-.78-1.36-1.12-2.08,0-.1,0-.22-.08-.38-.1-.41-.2-.83-.31-1.25s0-.89,0-1,0-.39,0-.75v0c.19-.83.38-1.65.63-2.46.14-.41.29-.8.42-1.21a.94.94,0,0,0,.06-.18l.06-.12c3.47-7.13,8.47-13.83,10.24-21.68,1.89-8.43.13-16.77-3.11-24.61-1-2.4-2-4.78-3.11-7.16l-1.28-2.84c-.2-.46-1-2.48-.85-2-.72-1.81-1.41-3.63-2-5.51-.29-1-.55-1.94-.76-2.92-.1-.44-.17-.88-.26-1.31v0c-.05-1-.15-1.94-.13-2.92,0-.47,0-.93.06-1.4v-.24s0-.12,0-.19c.23-1,.46-2,.79-3,.13-.4.28-.79.42-1.19l.15-.25c.51-.93,1-1.85,1.58-2.73l.26-.38c.23-.28.63-.78.72-.88.75-.83,1.58-1.56,2.41-2.32.58-.38,1.16-.76,1.76-1.12,4-2.35,5.78-8.07,3.18-12.1a9,9,0,0,0-12.11-3.18A34.38,34.38,0,0,0,38.81,50.35c-1.66,9.65,1,18.45,4.81,27.23.77,1.8,1.59,3.59,2.39,5.38.38.84.76,1.68,1.13,2.52l.34.81.35.86a54.32,54.32,0,0,1,1.84,5.39c.23.84.44,1.69.61,2.55,0,.2.09.81.17,1.12l0,.38c.05.87.06,1.74,0,2.6,0,.13-.07.69-.1,1,.07-.53.35-1.52,0-.11l0,.12a1,1,0,0,0,0,.26.51.51,0,0,1,0-.26c-.19.83-.37,1.65-.63,2.46-.13.43-.29.85-.43,1.27a3.19,3.19,0,0,0-.09.31l0,.08c-1.66,3.53-3.68,6.85-5.54,10.28-2,3.76-4.09,7.84-4.84,12.09a26.45,26.45,0,0,0,2,16.28c1.77,3.81,4.51,7,6.92,10.38a53.72,53.72,0,0,1,3,5.11v0c.21.6.43,1.2.61,1.8.34,1.1.58,2.21.81,3.33l0,.18c0,.54.1,1.08.12,1.63a28,28,0,0,1,0,3c0,.45-.07.9-.11,1.35a.45.45,0,0,1,0,.08c-.34,1.22-.53,2.47-.93,3.68-.16.51-.37,1-.53,1.51l0,.11v0c-.52,1.1-1,2.2-1.57,3.3-1.29,2.63-2.55,5.26-3.62,8-4,10.12-2.44,21,2.81,30.34.62,1.09,1.26,2.16,1.87,3.26.24.43.48.87.71,1.31s.91,2.43.33.58c.15.46.33.91.47,1.38S52,225,52,224.82c0,.23,0,.46,0,.69a2.09,2.09,0,0,1,0,.24v0c-.36,1.21-.71,2.45-1.07,3.66l0,.09c-.28.58-.54,1.17-.82,1.75-1.13,2.32-2.37,4.57-3.4,6.93-4.52,10.34-4.64,23,5.6,29.9C56.15,270.71,62.28,269,64.42,264.93Z"/><path class="cls-13" d="M50.41,100.23h0Z"/><path class="cls-13" d="M62.25,205.2c-.19-.63-.23-.71-.2-.59s.13.38.19.57Z"/><path class="cls-13" d="M61.65,253.11l0,0v0l0,0h0l.08.1,0-.06c.19.14.36.28.54.43s0-.06-.55-.46a.75.75,0,0,0-.22-.4.94.94,0,0,1,0,.16Z"/><path class="cls-14" d="M67.12,60.75c-.78-1-12.39-15.75-8.11-18.4,3.21-2,15.51,11.17,16.29,12.21"/><path class="cls-14" d="M67,16.06c-.78,1-10.64,16.5-8.33,18.25l.21.15c2.47,1.88,15.52-11.18,16.3-12.21"/><path class="cls-14" d="M72.57,204.9c-.78-1-12.39-15.75-8.11-18.4,3.21-2,15.51,11.18,16.29,12.21"/><path class="cls-14" d="M72.38,162.12c-.78,1-10.63,16.5-8.32,18.25l.21.15c2.47,1.88,15.51-11.18,16.29-12.21"/><path class="cls-9" d="M74.43,89.33l-8.22,5.26c-2,1.31-4.33,3-4.29,5.47a2.48,2.48,0,0,0,.78,1.87,2.55,2.55,0,0,0,1.12.51c2,.44,3.95-.69,5.67-1.77l6.06-3.8"/><path class="cls-9" d="M75.8,118.42l-6.28-4.59a10.53,10.53,0,0,0-4.32-2.21c-1.62-.25-3.52.49-4,2-.59,1.86,1,3.64,2.41,5l9,8.35"/><path class="cls-9" d="M78.74,224.69l-8.87,2.52c-1.88.53-3.86,1.12-5.19,2.55s-1.68,4-.18,5.22c1,.87,2.55.84,3.9.72,3.94-.37,5.18-.39,8.95-1.6"/><path class="cls-9" d="M76.14,268c-3.82-1.18-7.82-2.48-10.56-5.39a7.44,7.44,0,0,0-2.48-2.14A3.32,3.32,0,0,0,59.27,262a4.61,4.61,0,0,0,0,4.29,9,9,0,0,0,1.34,1.91,21.23,21.23,0,0,0,12.71,6.95"/></g></g></svg>