<svg xmlns="http://www.w3.org/2000/svg" viewBox="0 0 128.27 155.76"><defs><style>.cls-1,.cls-6{fill:#ea5b50;}.cls-1,.cls-10,.cls-11,.cls-22,.cls-23,.cls-24,.cls-4,.cls-5,.cls-6,.cls-7,.cls-8,.cls-9{stroke:#241815;}.cls-1,.cls-12,.cls-3,.cls-4,.cls-5{stroke-miterlimit:10;}.cls-1,.cls-3,.cls-4,.cls-6{stroke-width:2.71px;}.cls-2{fill:#241815;}.cls-23,.cls-3,.cls-4{fill:none;}.cls-3{stroke:#ffdf43;}.cls-10,.cls-11,.cls-13,.cls-14,.cls-20,.cls-21,.cls-22,.cls-23,.cls-24,.cls-4,.cls-6,.cls-7,.cls-8,.cls-9{stroke-linecap:round;}.cls-5{fill:#ffe89d;stroke-width:2.26px;}.cls-10,.cls-11,.cls-13,.cls-14,.cls-20,.cls-21,.cls-22,.cls-23,.cls-24,.cls-6,.cls-7,.cls-8,.cls-9{stroke-linejoin:round;}.cls-7{fill:#eb5f65;}.cls-10,.cls-11,.cls-7,.cls-8,.cls-9{stroke-width:0.56px;}.cls-8{fill:#faf3bf;}.cls-15,.cls-9{fill:#fff;}.cls-10,.cls-18{fill:#98c66c;}.cls-11{fill:#93c575;}.cls-12{fill:#eabaa1;}.cls-12,.cls-13,.cls-14{stroke:#1d1d1b;stroke-width:1.69px;}.cls-13{fill:#865746;}.cls-14{fill:#e84349;}.cls-16{fill:#ffdc5e;}.cls-17,.cls-24{fill:#f8cbc5;}.cls-19{fill:#abddf8;}.cls-20{fill:#c6c6c5;}.cls-20,.cls-21{stroke:#2d2019;stroke-width:1.2px;}.cls-21{fill:#f5f1ad;}.cls-22{fill:#b3dff8;}.cls-22,.cls-23{stroke-width:2.81px;}.cls-24{stroke-width:1.99px;}</style></defs><g id="Layer_2" data-name="Layer 2"><g id="Layer_1-2" data-name="Layer 1"><path class="cls-1" d="M107.7,141.27a38.58,38.58,0,0,0-.17-11.67c-6.3-38.58,3.19-49.52-3.66-74.15C94.22,20.78,40.79,20.64,28.21,53.2c-7.86,20.36-10,57.75-3.47,86C52.28,138.44,81.35,142.89,107.7,141.27Z"/><path class="cls-2" d="M59.2,68c0,1.91-1,3.46-2.23,3.47S54.71,70,54.7,68.07s1-3.46,2.24-3.47S59.19,66.14,59.2,68Z"/><path class="cls-2" d="M75.86,68c0,1.9-1,3.45-2.24,3.46S71.37,69.89,71.36,68s1-3.46,2.23-3.46S75.85,66.05,75.86,68Z"/><path class="cls-3" d="M67.63,80.37a2.29,2.29,0,1,1-2.3-2.27A2.27,2.27,0,0,1,67.63,80.37Z"/><line class="cls-4" x1="65.57" y1="29.6" x2="65.61" y2="37.58"/><path class="cls-4" d="M64.18,29.6s-8,1.14-8,8.83"/><path class="cls-4" d="M67,29.68a11,11,0,0,1,8.11,7.85"/><path class="cls-5" d="M1.13,144.54c0,5.56,3.62,10.09,8.07,10.09H119.07c4.45,0,8.07-4.53,8.07-10.09V117a9.27,9.27,0,0,0-9.45-9.09H10.58A9.27,9.27,0,0,0,1.13,117Z"/><path class="cls-6" d="M101.68,102.71c-.27,1.44-5.61,16.17-11.09,14.59-4.12-1.19,2-18.12,2.31-19.56"/><path class="cls-6" d="M25.05,80.39c-1.14-.93-12-7.94-14-5.39l-.18.23C8.62,78,22.88,93.25,24,94.17"/><path class="cls-7" d="M66.37,86.28c-.63-.8-.87-1.11-1-1.22-.27.22-2.19,1.86-1.74,3.37C64.35,91,69.1,89.37,66.37,86.28Z"/><path class="cls-8" d="M65.9,87.41l-.5-.62c-.14.11-1.12.95-.89,1.73C64.86,89.81,67.29,89,65.9,87.41Z"/><polygon class="cls-9" points="64.09 107.42 65.25 107.42 66.75 106.05 66.75 103.49 64.09 105.93 64.09 107.42"/><polygon class="cls-10" points="64.09 105.93 66.75 103.49 66.75 100.94 64.09 103.37 64.09 105.93"/><polygon class="cls-11" points="66.75 107.42 66.75 106.05 65.25 107.42 66.75 107.42"/><polygon class="cls-9" points="64.09 103.37 66.75 100.94 66.75 98.38 64.09 100.82 64.09 103.37"/><polygon class="cls-9" points="66.75 90.56 64.09 90.56 64.09 93.15 66.75 90.72 66.75 90.56"/><polygon class="cls-10" points="66.75 90.72 64.09 93.15 64.09 95.71 66.75 93.27 66.75 90.72"/><polygon class="cls-10" points="64.09 100.82 66.75 98.38 66.75 95.83 64.09 98.26 64.09 100.82"/><polygon class="cls-9" points="64.09 95.71 64.09 98.26 66.75 95.83 66.75 93.27 64.09 95.71"/><line class="cls-9" x1="65.42" y1="88.67" x2="65.42" y2="90.5"/><path class="cls-12" d="M85.46,118.11c-.32-3.87-.27-9-4.25-11a18.76,18.76,0,0,0-5.33-1.37q-3.36-.57-6.76-.86a66.17,66.17,0,0,0-14.48.45c-4,.58-8.73,2.11-9,6.33,0,1-.07,1.76-.07,2.63-.06,4,0,7.65,0,11.6a6.33,6.33,0,0,0,2.5,5.65A23.1,23.1,0,0,0,53.17,134a35.21,35.21,0,0,0,21,1.3,33.4,33.4,0,0,0,5-1.69,14.36,14.36,0,0,0,4.9-2.79c1.67-1.72,1.54-4.24,1.57-6.47S85.63,120.2,85.46,118.11Z"/><path class="cls-13" d="M84.44,128.13A3.07,3.07,0,0,0,81.76,130a3.07,3.07,0,0,0-3.9,1.54,3.15,3.15,0,0,0-1.31-.23A3.09,3.09,0,0,0,74,132.85a3.05,3.05,0,0,0-1.7-.42,3.09,3.09,0,0,0-2.22,1.11,3.07,3.07,0,0,0-4.4.34,3,3,0,0,0-4.2-.14,3.08,3.08,0,0,0-2.69-1.36,3,3,0,0,0-1.5.47,3.06,3.06,0,0,0-3.89-1.37,3.09,3.09,0,0,0-3.05-2.06,3.13,3.13,0,0,0-.81.15,3.07,3.07,0,1,0-2.9,3.5,3.62,3.62,0,0,0,.81-.15,3.07,3.07,0,0,0,4.24,2.4,3.07,3.07,0,0,0,3,2.06,3,3,0,0,0,1.5-.47,3,3,0,0,0,2.84,1.61,3.1,3.1,0,0,0,1.89-.76,3,3,0,0,0,2.68,1.36A3.11,3.11,0,0,0,65.89,138a3,3,0,0,0,4.53-.2,3.07,3.07,0,0,0,4.71-.78,3.1,3.1,0,0,0,1.7.42,3.05,3.05,0,0,0,2.64-1.74,3.18,3.18,0,0,0,1.31.23,3.08,3.08,0,0,0,2.68-1.86,3.12,3.12,0,0,0,1.26.2,3.07,3.07,0,1,0-.28-6.14Z"/><path class="cls-13" d="M77.8,104.89A57.2,57.2,0,0,0,57.06,103c-3,.31-8.74,1.47-11,4.57a6.24,6.24,0,0,0-1.9,3.3,3.18,3.18,0,0,0,3.75,3.9c.5-.09,1.63-.77,2.08-.64s.23,1,.3,1.59a3.24,3.24,0,0,0,1.76,2.69,2.29,2.29,0,0,0,2.55-.52c.69-.7.6-1.67.71-2.55a2.06,2.06,0,0,1,.3-1.21,1.61,1.61,0,0,1,1.75-.75,1.72,1.72,0,0,1,1.13,1.72,2.08,2.08,0,0,1,.06.36,1.27,1.27,0,0,1,0,.28c0,.27,0,.54,0,.78,0,.9-.06,1.8,0,2.69a3.67,3.67,0,0,0,1.18,3c2,1.49,3.65-.59,3.89-2.45.18-1.44-.29-3.87.61-5.17h0l.36-.11a1.1,1.1,0,0,1,.51,0l.46.08,0,0a2.42,2.42,0,0,0,1.57.46c.94-.1,1.27-1.16,2-1.31.53-.12,1.45.61,2,.76a5.06,5.06,0,0,0,2.12.07,1.59,1.59,0,0,1,.33-.08c.21-.1.41-.28.62-.29.69,0,1.28.8,1.53,1.23s.2,1,.7,1.56a2.16,2.16,0,0,0,3,.28,2.55,2.55,0,0,0,.69-1.24,2.52,2.52,0,0,0,.07-.56.41.41,0,0,1,0-.11c0-.05,0-.1,0-.15a1.33,1.33,0,0,1,.72-1.31,1.29,1.29,0,0,1,.62-.15,1.27,1.27,0,0,1,.85.3h0a1.06,1.06,0,0,1,.27.29.05.05,0,0,1,0,0,1.49,1.49,0,0,1,.17.36h0a3.26,3.26,0,0,0,.71,1.31,1.29,1.29,0,0,0,1.72.28,1.35,1.35,0,0,0,1-1.07C87.69,109.5,82.57,106.21,77.8,104.89Z"/><path class="cls-14" d="M62.81,100.87c-.51-1.54-1.17-4.22-3.05-4.54a2.7,2.7,0,0,0-.56,0,1.47,1.47,0,0,0-1,.17,7,7,0,0,0-3.56,5.15c-.3,1.76-.44,4,1.49,4.83,1.73.72,4.16.84,5.69-.36S63.43,102.72,62.81,100.87Z"/><path class="cls-15" d="M58,99a.26.26,0,0,0,0,.52A.26.26,0,0,0,58,99Z"/><path class="cls-15" d="M56.93,101a.26.26,0,0,0,0,.51A.26.26,0,1,0,56.93,101Z"/><path class="cls-15" d="M57.87,103.74a.26.26,0,0,0,0,.52A.26.26,0,0,0,57.87,103.74Z"/><path class="cls-15" d="M61.21,103.27a.26.26,0,0,0,0,.52A.26.26,0,0,0,61.21,103.27Z"/><path class="cls-15" d="M59.61,101.8a.26.26,0,0,0,0,.52A.26.26,0,0,0,59.61,101.8Z"/><path class="cls-15" d="M60.41,98.32a.26.26,0,0,0,0,.52A.26.26,0,0,0,60.41,98.32Z"/><path class="cls-14" d="M69.08,101.16c-.52-1.54-1.17-4.23-3.06-4.54a2.64,2.64,0,0,0-.55,0,1.53,1.53,0,0,0-1,.17,7,7,0,0,0-3.56,5.15c-.3,1.76-.44,4,1.48,4.84,1.73.72,4.16.83,5.7-.37S69.69,103,69.08,101.16Z"/><path class="cls-15" d="M64.27,99.28a.26.26,0,0,0,0,.51A.26.26,0,0,0,64.27,99.28Z"/><path class="cls-15" d="M63.2,101.28a.26.26,0,0,0,0,.52A.26.26,0,0,0,63.2,101.28Z"/><path class="cls-15" d="M64.13,104a.26.26,0,0,0,0,.52A.26.26,0,0,0,64.13,104Z"/><path class="cls-15" d="M67.48,103.55a.26.26,0,0,0,0,.52A.26.26,0,0,0,67.48,103.55Z"/><path class="cls-15" d="M65.87,102.08a.26.26,0,0,0,0,.52A.26.26,0,0,0,65.87,102.08Z"/><path class="cls-15" d="M66.67,98.61a.26.26,0,0,0,0,.52A.26.26,0,0,0,66.67,98.61Z"/><path class="cls-14" d="M67.81,101.16c.52-1.54,1.18-4.23,3.06-4.54a2.69,2.69,0,0,1,.55,0,1.53,1.53,0,0,1,1,.17A7,7,0,0,1,76,101.9c.31,1.76.45,4-1.48,4.84-1.73.72-4.16.83-5.69-.37C67.13,105.06,67.2,103,67.81,101.16Z"/><path class="cls-15" d="M72.63,99.28a.26.26,0,0,1,0,.51A.26.26,0,0,1,72.63,99.28Z"/><path class="cls-15" d="M73.69,101.28a.26.26,0,0,1,0,.52A.26.26,0,0,1,73.69,101.28Z"/><path class="cls-15" d="M72.76,104a.26.26,0,0,1,0,.52A.26.26,0,0,1,72.76,104Z"/><path class="cls-15" d="M69.42,103.55a.26.26,0,0,1,0,.52A.26.26,0,0,1,69.42,103.55Z"/><path class="cls-15" d="M71,102.08a.26.26,0,0,1,0,.52A.26.26,0,0,1,71,102.08Z"/><path class="cls-15" d="M70.22,98.61a.26.26,0,0,1,0,.52A.26.26,0,0,1,70.22,98.61Z"/><path class="cls-15" d="M52.56,106.53a.27.27,0,0,0-.35.09l-.79,1.11a.26.26,0,1,0,.44.26c.27-.37.53-.74.8-1.1A.26.26,0,0,0,52.56,106.53Z"/><path class="cls-16" d="M56.38,109.7a.27.27,0,0,0-.12.35l.51,1.27a.26.26,0,0,0,.35.11.26.26,0,0,0,.11-.35l-.51-1.26A.25.25,0,0,0,56.38,109.7Z"/><path class="cls-16" d="M77.48,110.16a.25.25,0,0,0-.11.34l.51,1.27a.25.25,0,0,0,.35.11.27.27,0,0,0,.11-.35l-.51-1.26A.25.25,0,0,0,77.48,110.16Z"/><path class="cls-17" d="M48,107.75a.27.27,0,0,0-.11.35l.51,1.26a.26.26,0,1,0,.46-.23l-.51-1.27A.26.26,0,0,0,48,107.75Z"/><path class="cls-18" d="M69.6,108.65a.27.27,0,0,0-.36-.07l-1.21.63a.26.26,0,0,0,.29.44l1.2-.64A.26.26,0,0,0,69.6,108.65Z"/><path class="cls-17" d="M75.46,108.05a.26.26,0,0,0-.35.1l-.75,1.14a.25.25,0,0,0,.11.35.26.26,0,0,0,.35-.1c.25-.38.5-.76.74-1.14A.25.25,0,0,0,75.46,108.05Z"/><path class="cls-19" d="M63.33,108.65a.26.26,0,0,0-.35.11l-.75,1.14a.26.26,0,0,0,.1.35.27.27,0,0,0,.35-.11l.75-1.14A.25.25,0,0,0,63.33,108.65Z"/><path class="cls-19" d="M79.85,107.59a.28.28,0,0,0,0,.37l1,1a.25.25,0,0,0,.36,0,.28.28,0,0,0,0-.37l-1-1A.27.27,0,0,0,79.85,107.59Z"/><rect class="cls-20" x="8.95" y="66.98" width="2.33" height="6.1" transform="translate(-24 8.04) rotate(-20.61)"/><rect class="cls-21" x="10.05" y="71.82" width="5.32" height="10.24" rx="1.59" transform="translate(-26.26 9.4) rotate(-20.6)"/><path class="cls-20" d="M9.1,58.11a.89.89,0,0,0-.52,1.14l1.29,3.41s0,1.07-.21,1.13-1.08-.65-1.08-.65L7.29,59.73a.88.88,0,1,0-1.65.63L7,64s-.27.94-.46,1-1-.46-1-.46L4.16,60.91a.89.89,0,1,0-1.66.62l1.6,4.24s0,0,0,0a4.23,4.23,0,0,0,5.35,2.48,4.23,4.23,0,0,0,2.38-5.39v0l-1.6-4.24A.88.88,0,0,0,9.1,58.11Z"/><path class="cls-22" d="M66.9,7.22,55.1,29.49c0,1.88,4.91,3.88,11.54,4S77.92,31.68,78,29.79Z"/><path class="cls-15" d="M69.59,31.73a34.51,34.51,0,0,1-10.17-8.37c-.69-.84-1.88.36-1.19,1.19a35.69,35.69,0,0,0,10.5,8.63C69.69,33.7,70.54,32.25,69.59,31.73Z"/><path class="cls-15" d="M75.94,30.25a76.75,76.75,0,0,1-14-11.47c-.76-.79-1.95.41-1.2,1.19A79.26,79.26,0,0,0,75.08,31.71C76,32.29,76.85,30.83,75.94,30.25Z"/><path class="cls-15" d="M72.94,20.28a39.78,39.78,0,0,1-8.24-6.59.85.85,0,1,0-1.2,1.19,41.54,41.54,0,0,0,8.59,6.85C73,22.33,73.84,20.87,72.94,20.28Z"/><path class="cls-23" d="M66.9,7.22,55.1,29.49c0,1.88,4.91,3.88,11.54,4S77.92,31.68,78,29.79Z"/><circle class="cls-24" cx="67.02" cy="5.02" r="4.02"/></g></g></svg>