<svg xmlns="http://www.w3.org/2000/svg" viewBox="0 0 238.38 166.39"><defs><style>.cls-1,.cls-2{fill:#778e43;}.cls-1,.cls-10,.cls-14,.cls-15,.cls-16,.cls-2,.cls-3,.cls-5,.cls-6,.cls-7{stroke:#2d2019;}.cls-1,.cls-10,.cls-14,.cls-15,.cls-16,.cls-3,.cls-6,.cls-7,.cls-9{stroke-miterlimit:10;}.cls-1,.cls-2,.cls-3{stroke-width:0.76px;}.cls-2,.cls-5,.cls-7{stroke-linecap:round;}.cls-2,.cls-5{stroke-linejoin:round;}.cls-3{fill:#8bba61;}.cls-4{fill:#2c2018;}.cls-5,.cls-6{fill:#ea5b50;}.cls-5{stroke-width:2.32px;}.cls-6,.cls-7{stroke-width:2.32px;}.cls-7,.cls-9{fill:none;}.cls-8{fill:#2b2019;}.cls-9{stroke:#ffec45;stroke-width:2.09px;}.cls-10{fill:#fff;stroke-width:0.47px;}.cls-11{fill:#ffed00;}.cls-12{fill:#2d2019;}.cls-13{fill:#e42324;}.cls-14,.cls-15{fill:#3c3c3b;}.cls-14{stroke-width:2.1px;}.cls-15{stroke-width:2.25px;}.cls-16{fill:#deaf5e;stroke-width:2.42px;}</style></defs><g id="Layer_2" data-name="Layer 2"><g id="Layer_1-2" data-name="Layer 1"><circle class="cls-1" cx="47.47" cy="22.75" r="4.11"/><path class="cls-2" d="M48.3,23.77S50.21,28.66,47,32l3.24,2.16S53,30,55,30.05l-.57-1.62-2.24,1.26,1.35-2.42-1.33-1.5-2,3.25.33-4.69Z"/><path class="cls-3" d="M61.53,27a3.53,3.53,0,0,0-1-4.87,3.68,3.68,0,0,0-.94-.45,3.53,3.53,0,0,0-5.78-3.42,4,4,0,0,0-1-.88,4.11,4.11,0,1,0-2.09,7.52,3.53,3.53,0,0,0,4.35,2.38,3.85,3.85,0,1,0,6.4-.28Z"/><path class="cls-4" d="M54.27,18a.42.42,0,0,0-.56-.15,1.82,1.82,0,0,0-.69.86.42.42,0,0,0,.15.56.43.43,0,0,0,.57-.15,2.18,2.18,0,0,1,.2-.37.58.58,0,0,1,.19-.19A.41.41,0,0,0,54.27,18Z"/><path class="cls-4" d="M59.74,21.3a.44.44,0,0,0-.51.32.75.75,0,0,0,0,.16v0l0,.08c0,.05,0,.1-.08.14v0l-.06.07a.37.37,0,0,0,0,.55.49.49,0,0,0,.62-.05,2.16,2.16,0,0,0,.42-.86A.38.38,0,0,0,59.74,21.3Z"/><circle class="cls-1" cx="140.21" cy="113.22" r="4.11"/><path class="cls-2" d="M141.44,112.75s5.24-.28,7.4,3.85l3.07-2.4s-3.11-4-2.42-5.84l-1.71,0,.5,2.52-1.88-2-1.84.79,2.47,2.89-4.35-1.78Z"/><path class="cls-3" d="M148.68,101.21a3.53,3.53,0,0,0-4.94-.58,3.35,3.35,0,0,0-.71.75A3.53,3.53,0,0,0,138,105.8a4.12,4.12,0,0,0-1.84,6.4,4.12,4.12,0,0,0,5.77.71,4.17,4.17,0,0,0,1.43-2.15,3.53,3.53,0,0,0,3.62-3.38,3.85,3.85,0,1,0,1.73-6.17Z"/><path class="cls-4" d="M137.8,105.27a.41.41,0,0,0-.32.49,1.9,1.9,0,0,0,.6.92.42.42,0,0,0,.58,0,.43.43,0,0,0,0-.59,2.13,2.13,0,0,1-.3-.3.64.64,0,0,1-.11-.24A.41.41,0,0,0,137.8,105.27Z"/><path class="cls-4" d="M142.67,101.12a.45.45,0,0,0,.14.58l.14.1h0l.06.06.12.12h0s0,0,0,.08a.38.38,0,0,0,.55.12.49.49,0,0,0,.14-.6,2.29,2.29,0,0,0-.68-.67A.39.39,0,0,0,142.67,101.12Z"/><path class="cls-5" d="M63.46,68c3.17-5.24-15.12-12.76-17.69-15.15-2.72-2.54-6,3-2.38,5.65S61.65,71,63.46,68Z"/><path class="cls-5" d="M64.31,84.69c.08-5.75-18.3-3.17-21.5-3.88-3.42-.76-3.41,5.3.74,5.71S64.26,88,64.31,84.69Z"/><path class="cls-5" d="M101.28,42.57c.34-1.27,5.61-19.6.41-20.5C97.77,21.4,91.2,38.52,90.86,39.79"/><path class="cls-5" d="M154.65,30.66c-.26-1.4-1.89-2.09-4-1.87.76-1.39.91-2.72.23-3.55s-2.21-1-3.86-.37c.82-2.15.54-4.06-.85-4.65-1.71-.72-4.48.89-6.17,3.61s-1.67,5.51.05,6.24a2.29,2.29,0,0,0,.28.09,1.18,1.18,0,0,1,.88,1.22,2.09,2.09,0,0,0,.43,1.4,2,2,0,0,0,1.13.67,1.18,1.18,0,0,1,.95,1s0,.06,0,.09c.33,1.84,3,2.46,6.05,1.39S155,32.5,154.65,30.66Z"/><path class="cls-6" d="M75,43.13c20.71-1.92,24.4-12.54,32.46-16.86,27-14.51,55.38,14.85,42.35,41.69C137.16,94,89.24,112,66.7,100.13,41.8,87,38.82,46.5,75,43.13Z"/><line class="cls-7" x1="142.22" y1="32.31" x2="137.16" y2="36.88"/><path class="cls-7" d="M143,33.18s3.88,5.71-1,10.11"/><path class="cls-7" d="M141.33,31.44a9.42,9.42,0,0,0-9.63-.59"/><path class="cls-5" d="M129,76.83c1.39.68,15.52,7.31,14.13,10.17l-.13.26c-1.49,3.06-22.44-4.06-23.83-4.74"/><ellipse class="cls-8" cx="114.08" cy="40.15" rx="2.95" ry="1.92" transform="translate(2.64 87.14) rotate(-42.25)"/><ellipse class="cls-8" cx="123.16" cy="49.14" rx="2.95" ry="1.92" transform="translate(-1.04 95.58) rotate(-42.25)"/><circle class="cls-9" cx="109.97" cy="50.25" r="1.96"/><path class="cls-10" d="M165.43,67.88c-3.18-1-6.43.45-7.24,3.16s1.1,5.68,4.28,6.65,6.43-.46,7.25-3.16S168.62,68.84,165.43,67.88Zm-2.51,8.34c-2.23-.68-3.58-2.76-3-4.66s2.84-2.88,5.07-2.21,3.57,2.76,3,4.65S165.15,76.89,162.92,76.22Z"/><path class="cls-10" d="M112.7.24c-3.32,0-6,2.29-6,5.12s2.7,5.12,6,5.12,6-2.29,6-5.12S116,.24,112.7.24Zm0,8.7c-2.33,0-4.21-1.6-4.21-3.58s1.88-3.59,4.21-3.59,4.22,1.61,4.22,3.59S115,8.94,112.7,8.94Z"/><path class="cls-10" d="M87.17,117.35c-3.33,0-6,2.3-6,5.13s2.69,5.12,6,5.12,6-2.3,6-5.12S90.5,117.35,87.17,117.35Zm0,8.71c-2.33,0-4.22-1.6-4.22-3.58s1.89-3.59,4.22-3.59,4.22,1.61,4.22,3.59S89.5,126.06,87.17,126.06Z"/><path class="cls-11" d="M32.39,66.51h0a1.5,1.5,0,0,0,1.15.4,3.2,3.2,0,0,0,1.19-.35,6.91,6.91,0,0,0,1.56-1,.94.94,0,0,0,.3-.33,1.07,1.07,0,0,0-.17-.89c-.46-.83-1-1.65-1.49-2.44a1.42,1.42,0,0,0-.82-.69,1.36,1.36,0,0,0-.88.24c-.82.44-2.26,1-2.22,2.08A6.74,6.74,0,0,0,32.39,66.51Z"/><path class="cls-12" d="M32.18,66.72c1.06,1.1,2.81.17,3.8-.53a3.29,3.29,0,0,0,.78-.66,1,1,0,0,0,.08-1,12.9,12.9,0,0,0-1.12-2C35.37,62,35,61.2,34.35,61s-1.2.19-1.72.46c-.86.43-2,1-1.92,2.15a4.55,4.55,0,0,0,.52,1.65,5.45,5.45,0,0,0,.95,1.5c.27.29.7-.14.43-.43a6,6,0,0,1-1.18-2.21,1.31,1.31,0,0,1,0-1,2.16,2.16,0,0,1,.87-.8c.34-.2.7-.36,1-.55s.57-.33.86-.19a1.58,1.58,0,0,1,.53.59q.54.8,1,1.62c.15.26.3.52.43.78a1.07,1.07,0,0,1,.15.37c0,.19-.07.29-.21.41a6.73,6.73,0,0,1-1.69,1.05,1.61,1.61,0,0,1-1.81-.08C32.34,66,31.9,66.44,32.18,66.72Z"/><path class="cls-11" d="M105.25,130.05h0a1.49,1.49,0,0,0,1.14.4,3.19,3.19,0,0,0,1.2-.35,7.48,7.48,0,0,0,1.56-1,.94.94,0,0,0,.29-.34,1,1,0,0,0-.17-.88,26.66,26.66,0,0,0-1.49-2.45,1.37,1.37,0,0,0-.81-.69,1.34,1.34,0,0,0-.88.24c-.82.45-2.26,1-2.22,2.08A6.53,6.53,0,0,0,105.25,130.05Z"/><path class="cls-12" d="M105,130.27c1.06,1.1,2.81.16,3.81-.54a3.06,3.06,0,0,0,.77-.66,1,1,0,0,0,.09-1,11.68,11.68,0,0,0-1.13-2c-.34-.55-.72-1.35-1.36-1.59s-1.2.19-1.73.46c-.85.43-2,1-1.92,2.16a4.91,4.91,0,0,0,.53,1.65,5.83,5.83,0,0,0,.94,1.5c.27.29.71-.15.44-.44a5.77,5.77,0,0,1-1.18-2.21,1.31,1.31,0,0,1,0-1,2,2,0,0,1,.87-.79c.34-.21.7-.37,1-.56s.56-.33.86-.18a1.56,1.56,0,0,1,.53.58c.35.53.69,1.07,1,1.62.15.26.3.52.44.78a1.31,1.31,0,0,1,.15.37c0,.2-.08.29-.21.41a6.73,6.73,0,0,1-1.69,1c-.56.24-1.34.42-1.81-.08C105.19,129.55,104.76,130,105,130.27Z"/><path class="cls-11" d="M165.73,37.05h0a1.49,1.49,0,0,0,1.14.4,3.37,3.37,0,0,0,1.2-.34,8,8,0,0,0,1.56-1,.94.94,0,0,0,.29-.34,1,1,0,0,0-.17-.88,26.66,26.66,0,0,0-1.49-2.45,1.37,1.37,0,0,0-.81-.69,1.34,1.34,0,0,0-.88.24c-.82.45-2.26,1-2.22,2.08A6.53,6.53,0,0,0,165.73,37.05Z"/><path class="cls-12" d="M165.51,37.27c1.06,1.1,2.81.16,3.81-.54a3.06,3.06,0,0,0,.77-.66,1,1,0,0,0,.09-1,12.4,12.4,0,0,0-1.13-2c-.34-.55-.72-1.35-1.36-1.59s-1.2.19-1.73.46c-.85.43-2,1-1.92,2.16a4.83,4.83,0,0,0,.53,1.65,5.83,5.83,0,0,0,.94,1.5c.27.29.71-.15.44-.44a5.77,5.77,0,0,1-1.18-2.21,1.31,1.31,0,0,1,0-1,2,2,0,0,1,.87-.79c.34-.21.7-.37,1-.56s.56-.33.86-.18a1.64,1.64,0,0,1,.53.58c.35.53.69,1.07,1,1.62.15.26.3.52.44.78a1,1,0,0,1,.14.37c0,.2-.07.29-.2.41a6.73,6.73,0,0,1-1.69,1c-.56.24-1.34.42-1.81-.08C165.67,36.55,165.24,37,165.51,37.27Z"/><path class="cls-13" d="M114.67,110.59h0a1.45,1.45,0,0,0,.7-1,3,3,0,0,0,0-1.24,7.16,7.16,0,0,0-.52-1.78,1.07,1.07,0,0,0-.24-.38,1,1,0,0,0-.9-.08c-.93.2-1.85.45-2.76.74a1.41,1.41,0,0,0-.89.59,1.44,1.44,0,0,0,0,.92c.2.91.3,2.44,1.38,2.71A6.59,6.59,0,0,0,114.67,110.59Z"/><path class="cls-12" d="M114.82,110.86c1.38-.72.92-2.74.51-3.9a2.55,2.55,0,0,0-.45-.92,1.08,1.08,0,0,0-.93-.26,14,14,0,0,0-2.3.56c-.6.17-1.47.32-1.82.91s-.09,1.16,0,1.72c.17.93.44,2.18,1.53,2.43a4.85,4.85,0,0,0,1.74-.05,5.54,5.54,0,0,0,1.7-.49c.35-.18,0-.71-.31-.53a4.49,4.49,0,0,1-1.13.35,7,7,0,0,1-1.37.16,1.25,1.25,0,0,1-1-.3,2.25,2.25,0,0,1-.48-1.05c-.1-.39-.16-.8-.24-1.19a.94.94,0,0,1,0-.77,1.24,1.24,0,0,1,.65-.36c.63-.21,1.27-.39,1.92-.55.3-.08.61-.15.92-.21s.51-.07.65.19a6,6,0,0,1,.59,2.05c.06.6,0,1.37-.6,1.68C114.16,110.51,114.47,111,114.82,110.86Z"/><path class="cls-13" d="M83.11,32.6h0a1.49,1.49,0,0,0,.71-1,3.45,3.45,0,0,0,0-1.24,7.18,7.18,0,0,0-.53-1.78,1,1,0,0,0-.24-.38,1,1,0,0,0-.89-.08c-.94.2-1.86.45-2.77.74a1.41,1.41,0,0,0-.89.59,1.38,1.38,0,0,0,0,.92c.2.91.3,2.44,1.37,2.71A6.57,6.57,0,0,0,83.11,32.6Z"/><path class="cls-12" d="M83.26,32.87c1.38-.72.92-2.74.51-3.9a2.55,2.55,0,0,0-.45-.92,1.07,1.07,0,0,0-.93-.26,14.28,14.28,0,0,0-2.3.56c-.6.17-1.46.32-1.82.9s-.08,1.17,0,1.73c.17.93.44,2.18,1.53,2.43a4.84,4.84,0,0,0,1.74,0,5.54,5.54,0,0,0,1.7-.49c.36-.18,0-.71-.31-.53a4.29,4.29,0,0,1-1.12.35,7.21,7.21,0,0,1-1.38.16,1.25,1.25,0,0,1-1-.3,2.46,2.46,0,0,1-.48-1c-.1-.4-.15-.8-.24-1.19a1,1,0,0,1,0-.77,1.27,1.27,0,0,1,.65-.36c.64-.21,1.28-.39,1.92-.55l.92-.21c.27-.06.51-.07.66.19a6.17,6.17,0,0,1,.58,2.05c.06.6,0,1.37-.6,1.68C82.61,32.52,82.91,33.05,83.26,32.87Z"/><rect class="cls-14" x="159.66" y="145.39" width="31.79" height="7.96" transform="translate(26.41 -26.37) rotate(9.29)"/><path class="cls-15" d="M6,125.93H163.23a6.75,6.75,0,0,1,6.75,6.75v.86a19.58,19.58,0,0,1-19.58,19.58H18.87A19.58,19.58,0,0,1-.7,133.55v-.86A6.75,6.75,0,0,1,6,125.93Z" transform="translate(23.63 -11.83) rotate(9.29)"/><rect class="cls-16" x="184.27" y="148.29" width="53.15" height="13.71" rx="6.86" transform="translate(27.8 -31.99) rotate(9.29)"/></g></g></svg>