<svg xmlns="http://www.w3.org/2000/svg" viewBox="0 0 166.95 160.31"><defs><style>.cls-1,.cls-2{fill:#ec664b;}.cls-1,.cls-10,.cls-2,.cls-5,.cls-6,.cls-7,.cls-8,.cls-9{stroke:#261815;}.cls-1,.cls-10,.cls-5,.cls-6,.cls-7,.cls-8,.cls-9{stroke-linecap:round;}.cls-1,.cls-10,.cls-6,.cls-7,.cls-8,.cls-9{stroke-linejoin:round;}.cls-1{stroke-width:4.21px;}.cls-2,.cls-4,.cls-5{stroke-miterlimit:10;}.cls-2,.cls-5{stroke-width:4.21px;}.cls-3{fill:#261815;}.cls-4,.cls-5{fill:none;}.cls-4{stroke:#ffdb3f;stroke-width:3.79px;}.cls-6{fill:#f6ae67;stroke-width:1.76px;}.cls-7{fill:#f5f4ac;stroke-width:1.79px;}.cls-8{fill:#83c471;stroke-width:1.79px;}.cls-9{fill:#251714;stroke-width:1.82px;}.cls-10{fill:#f6ee7b;stroke-width:1.5px;}</style></defs><g id="Layer_2" data-name="Layer 2"><g id="Layer_1-2" data-name="Layer 1"><path class="cls-1" d="M86,5.78C84,4.22,80.94,5.32,78.43,8.2c-.69-2.78-2.15-4.74-4.07-5s-4.15,1.43-5.6,4.26c-1.55-3.86-4.29-6.06-6.85-5.14C58.73,3.47,57,9,58.14,14.73S62.7,24.12,65.88,23a4.46,4.46,0,0,0,.5-.22,2.11,2.11,0,0,1,2.67.54,3.79,3.79,0,0,0,2.29,1.32,3.63,3.63,0,0,0,2.33-.5,2.16,2.16,0,0,1,2.51.16l.13.1c2.71,2,7.09-.47,9.78-5.6S88.76,7.82,86,5.78Z"/><path class="cls-2" d="M131.14,60.48C116.46,6.65,33.63,6,13.87,56.38,4.32,80.74,0,120.93,3.1,158.21H134C129.55,111.89,140.48,94.76,131.14,60.48Z"/><ellipse class="cls-3" cx="58.31" cy="79.64" rx="3.49" ry="5.35"/><ellipse class="cls-3" cx="84.12" cy="79.64" rx="3.49" ry="5.35"/><path class="cls-4" d="M78.11,94.67c0,2.24-3.08,6.2-6.89,6.2s-6.89-4-6.89-6.2,3.08-4.07,6.89-4.07S78.11,92.42,78.11,94.67Z"/><path class="cls-1" d="M117.26,131.14c2.43-1.26,37.35-20.17,40.87-11.25,2.65,6.72-29.43,27.35-31.86,28.61"/><line class="cls-5" x1="71.98" y1="20.09" x2="71.98" y2="32.46"/><path class="cls-5" d="M69.83,20.08s-12.4,1.71-12.4,13.62"/><path class="cls-5" d="M74.23,20.23a17.06,17.06,0,0,1,12.5,12.23"/><ellipse class="cls-6" cx="149.6" cy="136.81" rx="4.04" ry="4.65" transform="translate(-27.79 234.94) rotate(-71.39)"/><rect class="cls-7" x="140.62" y="111.5" width="31.89" height="9.29" transform="translate(-3.46 227.47) rotate(-71.39)"/><rect class="cls-8" x="147.79" y="129.25" width="5.58" height="9.29" transform="translate(-24.36 233.89) rotate(-71.39)"/><polygon class="cls-9" points="165.02 91.01 162.21 94.11 165.39 95.18 165.02 91.01"/><polygon class="cls-6" points="162.21 94.11 157.27 99.54 166.03 102.49 165.39 95.18 162.21 94.11"/><path class="cls-10" d="M96.1,65.19c-.5,1.87-1.74,5.23-4.36,5.94a.22.22,0,0,0,0,.41,7,7,0,0,1,4.71,5.36.2.2,0,0,0,.4,0c.37-2,1.35-5,3.92-5.71a.22.22,0,0,0,0-.41,6.49,6.49,0,0,1-4.29-5.57A.2.2,0,0,0,96.1,65.19Z"/></g></g></svg>