<svg xmlns="http://www.w3.org/2000/svg" viewBox="0 0 385.56 106.02"><defs><style>.cls-1{fill:#991915;}.cls-2,.cls-4,.cls-6{fill:none;}.cls-2{stroke:#991915;}.cls-2,.cls-6{stroke-miterlimit:10;stroke-width:4.71px;}.cls-3{fill:#ea5b50;}.cls-5{fill:#fff;}.cls-6{stroke:#ffef4a;}</style></defs><g id="Layer_2" data-name="Layer 2"><g id="Layer_1-2" data-name="Layer 1"><path class="cls-1" d="M32.46,73.18a.73.73,0,0,0-.73.75l.48,25.27c.12,4.79-1.48,5.52-4.54,5.52H10.12c-3.81,0-4.79-1-4.91-5.77L4,20.9c-.12-4.79,1.35-6.38,5.64-6.38H58.1a5,5,0,0,1,5,5V34.77c0,3.31-1.59,4.54-5,4.54H31.84a.73.73,0,0,0-.73.74l.11,8.84a.73.73,0,0,0,.73.73H53.81a5,5,0,0,1,5,5v14a4.54,4.54,0,0,1-4.54,4.54Z"/><path class="cls-1" d="M70.25,25c-.12-3.32-.24-5.16.62-6.51.61-1.1,2.45-1.71,5.89-2.7a85.11,85.11,0,0,1,25.16-2.45c9,.49,17.79,2.82,24.54,7.36,6.51,4.79,10.92,11.91,10.92,22.58,0,8.23-1.71,14.24-4.54,18.78a32.45,32.45,0,0,1-10.51,10.17.74.74,0,0,0-.25,1l11.75,18.5c2.45,4.05.86,6.38-2.09,7.49L118.85,104c-4.54,1.84-6.38.24-8-2.58L100.26,82.12a.75.75,0,0,0-1.41.37V99.2c0,4.29-1.11,5.52-4.67,5.52H77.49c-3.43,0-4.54-1.23-4.66-5.52Zm28,30.26A.77.77,0,0,0,99,56c9.7-.71,13.31-3.46,13.31-10.63,0-4-1.72-6.75-4.3-8.22-2.43-1.28-5.84-1.35-9.52-.84a.77.77,0,0,0-.65.77Z"/><path class="cls-1" d="M260.54,66.07a.72.72,0,0,0-1.36.35l.57,32.78c.12,3.93-.74,5.52-4.67,5.52H236.92c-4,0-4.66-1.59-4.79-5.52l-1.22-78.3c-.13-4.79,1.35-6.38,5.64-6.38h15.1c4.91,0,6.13.49,7.61,3.8l17.52,35.61a.73.73,0,0,0,1.38-.32V20.9c0-4.79,1.35-6.38,5.64-6.38h15.1c4.29,0,5.64,1.59,5.64,6.38V98.22c0,4.91-1.22,6.5-5.52,6.5H287.36c-4.78,0-6.63-1.59-9.08-6Z"/><path class="cls-1" d="M315.59,20c0-4.3,1.23-5.52,4.66-5.52h17.68c3.56,0,4.54,1.22,4.66,5.52l.22,18.73a.73.73,0,0,0,1.29.44L362.72,16c2-2.46,4.17-2.82,6.5-1.11l12,9.21c3.56,2.82,3.68,4.54,1.6,7.12L363.33,55.38l21,36.46c2.09,3.8,1.59,5.52-1.84,7l-14.36,5.77c-3.31,1.35-5.28,1.1-6.87-1.72L344.75,74.4a.74.74,0,0,0-1.37.38l.44,24.42c.12,4.29-1.11,5.52-4.67,5.52H321.48c-3.43,0-4.54-1.23-4.66-5.52Z"/><path class="cls-1" d="M225.63,95.89,200.22,20c-1.35-4-2.7-5.52-6.62-5.52H175.8c-3.93,0-5.28,1.47-6.63,5.52l-25.4,75.85c-1.11,3.43-.12,4.66,2.7,5.52l15.22,4.42c2.33.61,3.92-.25,4.78-2.83l3.23-10.76h0v0l.45-1.49h0l8-26.52,5.08-16.85a1.46,1.46,0,0,1,2.79,0L190.45,62l10.12,33.39h0l2.35,7.59c.86,2.58,2.46,3.44,4.79,2.83l15.22-4.42C225.75,100.55,226.73,99.32,225.63,95.89Z"/><path class="cls-1" d="M193.12,3.16c-1.56-.86-3.52.18-5,2.38-.74-1.83-1.92-3-3.25-3S182.22,3.89,181.5,6c-1.43-2.48-3.51-3.72-5.16-2.84-2.06,1.09-2.68,5-1.38,8.82s4,6,6.07,4.87a2,2,0,0,0,.31-.2,1.47,1.47,0,0,1,1.88.12,2.62,2.62,0,0,0,1.69.68,2.51,2.51,0,0,0,1.54-.57,1.48,1.48,0,0,1,1.72-.13l.1.06c2,1.13,4.78-1,6.12-4.76S195.16,4.29,193.12,3.16Z"/><circle class="cls-2" cx="184.7" cy="85.63" r="4.07"/><path class="cls-3" d="M28.49,70.66a.73.73,0,0,0-.73.75l.48,25.27c.12,4.79-1.48,5.52-4.55,5.52H6.14c-3.8,0-4.78-1-4.91-5.77L0,18.38C-.12,13.59,1.36,12,5.65,12H54.13a5,5,0,0,1,5,5V32.25c0,3.31-1.59,4.54-5,4.54H27.87a.72.72,0,0,0-.73.74l.1,8.84a.75.75,0,0,0,.74.73H49.84a5,5,0,0,1,5,5v14a4.54,4.54,0,0,1-4.54,4.54Z"/><path class="cls-3" d="M66.28,22.43c-.12-3.32-.24-5.16.61-6.51.62-1.1,2.46-1.72,5.9-2.7A85.11,85.11,0,0,1,98,10.77c9,.49,17.79,2.82,24.54,7.36C129,22.92,133.41,30,133.41,40.71c0,8.23-1.71,14.24-4.54,18.78a32.65,32.65,0,0,1-10.51,10.17.74.74,0,0,0-.25,1l11.75,18.5c2.45,4,.85,6.38-2.09,7.49l-12.89,4.79c-4.54,1.84-6.38.24-8-2.58L96.29,79.6a.75.75,0,0,0-1.41.36V96.68c0,4.29-1.11,5.52-4.67,5.52H73.52c-3.43,0-4.54-1.23-4.66-5.52Zm28,30.25a.76.76,0,0,0,.82.74c9.7-.7,13.31-3.45,13.31-10.62,0-4-1.72-6.75-4.3-8.22-2.43-1.28-5.85-1.35-9.52-.84a.77.77,0,0,0-.65.77Z"/><path class="cls-3" d="M256.57,63.55a.72.72,0,0,0-1.36.35l.57,32.78c.12,3.93-.74,5.52-4.67,5.52H233c-4,0-4.66-1.59-4.79-5.52l-1.22-78.3c-.13-4.79,1.35-6.38,5.64-6.38h15.1c4.91,0,6.13.49,7.61,3.8l17.52,35.61a.73.73,0,0,0,1.38-.32V18.38c0-4.79,1.35-6.38,5.64-6.38h15.1c4.29,0,5.64,1.59,5.64,6.38V95.7c0,4.91-1.22,6.5-5.52,6.5H283.39c-4.79,0-6.63-1.59-9.08-6Z"/><path class="cls-3" d="M311.62,17.52c0-4.3,1.23-5.52,4.66-5.52H334c3.55,0,4.54,1.22,4.66,5.52l.22,18.73a.72.72,0,0,0,1.28.44l18.63-23.22c2-2.46,4.17-2.82,6.5-1.11l12,9.21c3.56,2.82,3.68,4.54,1.59,7.12L359.36,52.86l21,36.46c2.08,3.8,1.59,5.52-1.84,7l-14.36,5.77c-3.32,1.35-5.28,1.1-6.88-1.72L340.78,71.88a.74.74,0,0,0-1.37.38l.44,24.42c.12,4.29-1.11,5.52-4.67,5.52H317.51c-3.44,0-4.54-1.23-4.66-5.52Z"/><polygon class="cls-4" points="165.74 89.7 166.19 88.21 166.18 88.21 165.74 89.7"/><polygon class="cls-5" points="165.73 89.72 165.74 89.7 165.73 89.72 165.73 89.72"/><path class="cls-3" d="M221.48,92.91,196.18,17.4c-1.34-4-2.68-5.5-6.59-5.5H171.87c-3.91,0-5.26,1.46-6.6,5.5L140,92.91c-1.1,3.42-.12,4.64,2.69,5.5l15.15,4.39c2.32.62,3.91-.24,4.76-2.81l3.22-10.72h0l.45-1.48h0l8-26.41,5.05-16.75a1.46,1.46,0,0,1,2.79,0l4.39,14.57,10.08,33.24h0l2.34,7.56c.86,2.57,2.45,3.43,4.77,2.81l15.15-4.39C221.6,97.55,222.58,96.33,221.48,92.91Z"/><path class="cls-3" d="M189.14.64c-1.55-.86-3.52.18-4.95,2.38-.74-1.83-1.92-3-3.25-3s-2.7,1.37-3.42,3.44C176.1,1,174-.28,172.37.6c-2.06,1.09-2.68,5-1.38,8.82s4,6,6.06,4.87a2.14,2.14,0,0,0,.32-.2,1.47,1.47,0,0,1,1.88.12,2.62,2.62,0,0,0,1.69.68,2.46,2.46,0,0,0,1.53-.57,1.49,1.49,0,0,1,1.73-.13l.1.06c2,1.13,4.78-1,6.12-4.76S191.19,1.77,189.14.64Z"/><circle class="cls-6" cx="182.06" cy="84.52" r="4.07"/></g></g></svg>